<svg width="50" height="50" viewBox="0 0 50 50" fill="none" xmlns="http://www.w3.org/2000/svg">
<rect width="50" height="50" rx="25" fill="#4F46E5" fill-opacity="0.2"/>
<path d="M15.5018 18.1408C15.665 18.2691 15.8074 18.4023 15.9485 18.5546C15.9884 18.5969 16.0283 18.6392 16.0694 18.6828C16.4284 19.204 16.5626 19.8383 16.4489 20.4601C16.2899 21.0537 15.9823 21.5364 15.4798 21.8945C15.3638 21.9525 15.3638 21.9525 15.2454 22.0116C15.2261 23.7132 15.2067 25.4148 15.1868 27.1679C15.3802 27.1679 15.5735 27.1679 15.7727 27.1679C15.77 27.0879 15.7673 27.0079 15.7645 26.9255C15.7451 26.1182 15.7499 25.4053 16.3054 24.7614C16.7456 24.3167 17.2651 24.0392 17.8991 24.0311C17.9497 24.0316 18.0002 24.0321 18.0523 24.0327C18.1077 24.0323 18.1631 24.0319 18.2201 24.0316C18.404 24.0306 18.5878 24.0314 18.7717 24.0321C18.9042 24.0318 19.0366 24.0314 19.1691 24.0309C19.5278 24.0298 19.8865 24.0302 20.2452 24.0309C20.6212 24.0315 20.9971 24.031 21.3731 24.0306C22.0447 24.0302 22.7164 24.0309 23.388 24.0321C23.9961 24.0331 24.6042 24.033 25.2123 24.0319C25.9197 24.0306 26.627 24.0302 27.3344 24.0308C27.7084 24.0312 28.0824 24.0313 28.4564 24.0305C28.8081 24.0298 29.1597 24.0303 29.5114 24.0316C29.6402 24.0319 29.7691 24.0319 29.8979 24.0313C30.0742 24.0307 30.2504 24.0315 30.4268 24.0327C30.4773 24.0321 30.5279 24.0316 30.58 24.0311C31.2087 24.0391 31.7144 24.3139 32.1607 24.7436C32.5217 25.1335 32.715 25.6081 32.7121 26.1379C32.7119 26.198 32.7117 26.258 32.7115 26.3199C32.711 26.3822 32.7105 26.4445 32.71 26.5087C32.7097 26.5719 32.7095 26.6352 32.7092 26.7003C32.7085 26.8562 32.7076 27.012 32.7063 27.1679C32.7537 27.1655 32.8011 27.1631 32.8499 27.1606C33.4369 27.1349 33.9383 27.2695 34.4056 27.6366C34.5594 27.7795 34.5594 27.7795 34.6985 27.9296C34.7384 27.9719 34.7783 28.0142 34.8194 28.0578C35.1403 28.5236 35.2345 29.0204 35.2353 29.5763C35.2356 29.6233 35.2359 29.6704 35.2362 29.7188C35.2371 29.8739 35.2375 30.029 35.2378 30.1841C35.2381 30.2925 35.2385 30.4009 35.2388 30.5093C35.2394 30.7365 35.2397 30.9638 35.24 31.191C35.2403 31.4808 35.2417 31.7706 35.2433 32.0604C35.2444 32.2844 35.2447 32.5084 35.2448 32.7324C35.245 32.8392 35.2455 32.9459 35.2463 33.0527C35.252 33.9065 35.2114 34.6369 34.6106 35.2978C34.5623 35.3413 34.514 35.3848 34.4642 35.4296C34.4206 35.4695 34.3771 35.5094 34.3323 35.5505C33.9328 35.8319 33.5292 35.9659 33.0433 35.9606C32.9801 35.9601 32.917 35.9596 32.8519 35.959C32.7799 35.958 32.7799 35.958 32.7063 35.957C32.7091 36.0002 32.7118 36.0435 32.7146 36.0881C32.7386 36.7643 32.56 37.309 32.0948 37.81C32.0452 37.8559 31.9957 37.9018 31.9446 37.9491C31.9023 37.989 31.86 38.0289 31.8165 38.07C31.3314 38.4042 30.8211 38.4852 30.2466 38.4851C30.1935 38.4853 30.1405 38.4855 30.0858 38.4858C29.9079 38.4864 29.73 38.4866 29.5521 38.4869C29.4246 38.4872 29.297 38.4876 29.1695 38.488C28.7506 38.4893 28.3316 38.4899 27.9126 38.4905C27.7683 38.4907 27.6239 38.4909 27.4795 38.4912C26.801 38.4923 26.1225 38.4931 25.444 38.4936C24.6617 38.4942 23.8794 38.4957 23.097 38.4981C22.4918 38.4999 21.8866 38.5007 21.2814 38.5009C20.9202 38.5011 20.559 38.5016 20.1978 38.5031C19.8576 38.5044 19.5175 38.5047 19.1774 38.5041C19.053 38.504 18.9286 38.5044 18.8042 38.5052C17.858 38.511 17.081 38.4682 16.3646 37.7844C15.9541 37.3548 15.7612 36.8234 15.7691 36.2316C15.7696 36.1799 15.7701 36.1281 15.7707 36.0748C15.7714 36.0359 15.772 35.997 15.7727 35.957C15.7295 35.9597 15.6862 35.9624 15.6416 35.9652C14.9791 35.9888 14.4487 35.8222 13.9563 35.371C13.5829 35.0028 13.3213 34.5709 13.3052 34.0386C13.3052 33.9481 13.3055 33.8575 13.3061 33.767C13.3062 33.6921 13.3062 33.6921 13.3063 33.6156C13.3067 33.4479 13.3074 33.2802 13.3081 33.1126C13.3085 32.9924 13.3087 32.8723 13.309 32.7522C13.3095 32.4934 13.3102 32.2346 13.3109 31.9758C13.3119 31.5666 13.3121 31.1574 13.3119 30.7482C13.3119 30.6792 13.3119 30.6102 13.3118 30.539C13.3118 30.3264 13.3117 30.1138 13.3116 29.9012C13.3112 29.0199 13.3115 28.1387 13.3148 27.2574C13.3172 26.6148 13.3178 25.9723 13.3162 25.3298C13.3154 24.9897 13.3156 24.6497 13.318 24.3096C13.3203 23.9897 13.3201 23.67 13.318 23.3501C13.3177 23.2327 13.3183 23.1153 13.3198 22.9979C13.354 22.3986 13.354 22.3986 13.1383 21.8693C13.0036 21.7797 12.8745 21.7225 12.7259 21.6601C12.301 21.2714 12.0638 20.7439 12.0097 20.1753C11.9856 19.5107 12.1928 18.9418 12.638 18.4521C12.6863 18.4086 12.7347 18.3651 12.7845 18.3202C12.828 18.2804 12.8715 18.2405 12.9163 18.1994C13.7176 17.6348 14.6658 17.6609 15.5018 18.1408ZM20.0833 28.0962C19.8683 28.3921 19.9011 28.7515 19.9329 29.1015C20.0342 29.4348 20.2969 29.6715 20.5774 29.8632C20.8736 29.9989 21.1536 30.0346 21.4701 29.9422C21.8631 29.7885 22.0856 29.5586 22.2986 29.2004C22.3896 28.8093 22.381 28.4477 22.1789 28.0949C21.9629 27.7996 21.7013 27.5949 21.3392 27.5195C20.7578 27.4656 20.4506 27.665 20.0833 28.0962ZM26.4368 27.9296C26.2093 28.2456 26.1279 28.5348 26.1438 28.9257C26.2264 29.314 26.4149 29.5872 26.7371 29.8193C27.0311 29.9735 27.356 30.0217 27.6815 29.9525C28.048 29.8266 28.3159 29.6306 28.4997 29.2802C28.6219 28.9642 28.6457 28.6431 28.5352 28.3215C28.3755 27.9656 28.1539 27.7209 27.7845 27.5781C27.2666 27.4539 26.8195 27.5469 26.4368 27.9296ZM20.3829 31.8872C20.2099 32.1516 20.1913 32.3646 20.2259 32.6757C20.4804 33.4094 21.3236 33.83 21.9775 34.1533C23.2151 34.743 24.5739 34.8269 25.8806 34.4296C26.749 34.1126 27.5974 33.6315 28.1946 32.9101C28.3034 32.5838 28.3066 32.2637 28.1617 31.9506C27.9324 31.7037 27.7147 31.5519 27.3706 31.5368C27.0028 31.5777 26.8103 31.714 26.5467 31.9616C25.8904 32.5567 24.9367 32.8489 24.0546 32.8151C23.1688 32.7147 22.3899 32.4106 21.7436 31.7792C21.5098 31.5704 21.3118 31.5358 21.0059 31.5443C20.7429 31.5794 20.5551 31.686 20.3829 31.8872Z" fill="#4F46E5"/>
<path d="M28.1096 11.5148C28.1662 11.5144 28.1662 11.5144 28.224 11.5141C28.35 11.5135 28.4761 11.5132 28.6022 11.513C28.6928 11.5126 28.7834 11.5123 28.8739 11.5118C29.1712 11.5106 29.4684 11.51 29.7656 11.5094C29.8682 11.5092 29.9708 11.5089 30.0733 11.5087C30.5556 11.5076 31.0379 11.5068 31.5201 11.5063C32.0754 11.5057 32.6306 11.5042 33.1859 11.5018C33.6159 11.5 34.046 11.4991 34.476 11.499C34.7324 11.4988 34.9888 11.4983 35.2452 11.4968C35.4869 11.4954 35.7285 11.4952 35.9701 11.4958C36.0582 11.4958 36.1463 11.4955 36.2345 11.4947C37.0778 11.4873 37.764 11.6237 38.3839 12.2155C38.8574 12.7111 38.9843 13.2853 38.9852 13.9533C38.9855 14.0026 38.9858 14.0519 38.9861 14.1027C38.987 14.2654 38.9874 14.4281 38.9877 14.5909C38.988 14.7045 38.9884 14.8181 38.9887 14.9318C38.9893 15.1701 38.9897 15.4084 38.9899 15.6467C38.9902 15.9506 38.9916 16.2546 38.9933 16.5586C38.9943 16.7935 38.9946 17.0283 38.9947 17.2632C38.9949 17.3752 38.9954 17.4871 38.9962 17.5991C39.0023 18.5557 38.9244 19.2674 38.2617 20.0048C37.9247 20.3275 37.424 20.5533 36.9532 20.5439C36.901 20.5393 36.8489 20.5347 36.7951 20.53C34.8968 20.3204 34.8968 20.3204 33.2086 21.0073C32.8086 21.3736 32.4662 21.7958 32.1511 22.2361C31.9658 22.4845 31.7872 22.5814 31.4831 22.6452C31.1797 22.6695 30.9521 22.6342 30.7056 22.4401C30.4281 22.191 30.1703 21.9338 29.9237 21.6546C29.2621 20.8538 29.2621 20.8538 28.3369 20.4987C28.136 20.504 27.9375 20.5181 27.7377 20.5392C27.2762 20.5664 26.8381 20.3117 26.4974 20.0222C26.0395 19.5618 25.776 19.037 25.7677 18.3847C25.768 18.3367 25.7682 18.2887 25.7685 18.2392C25.7681 18.187 25.7677 18.1348 25.7673 18.081C25.7662 17.91 25.7664 17.7391 25.7668 17.5682C25.7665 17.4483 25.7662 17.3284 25.7658 17.2085C25.7653 16.9578 25.7655 16.7072 25.766 16.4565C25.7667 16.1366 25.7655 15.8168 25.7638 15.4969C25.7627 15.2495 25.7628 15.002 25.7631 14.7546C25.7631 14.6367 25.7628 14.5189 25.762 14.401C25.7575 13.5503 25.7942 12.8464 26.4038 12.1899C26.4533 12.144 26.5029 12.098 26.5539 12.0507C26.5962 12.0109 26.6385 11.971 26.6821 11.9299C27.1153 11.6314 27.5895 11.5167 28.1096 11.5148Z" fill="#4F46E5"/>
</svg>
