<svg width="24" height="24" viewBox="0 0 24 24" fill="none" xmlns="http://www.w3.org/2000/svg">
<path d="M17.6855 12.9189C17.6592 10.2806 19.8368 9.01531 19.9342 8.95138C18.7103 7.16196 16.8037 6.91642 16.125 6.88848C14.5037 6.72381 12.9598 7.84352 12.1373 7.84352C11.3164 7.84352 10.0456 6.91261 8.70106 6.93632C6.93238 6.96257 5.30213 7.96502 4.39196 9.54828C2.55512 12.7347 3.92206 17.457 5.71191 20.0431C6.58694 21.3072 7.63046 22.7296 8.99951 22.6775C10.319 22.6255 10.8169 21.8241 12.412 21.8241C14.0071 21.8241 14.455 22.6775 15.8507 22.6509C17.2697 22.625 18.1693 21.3626 19.0372 20.0935C20.0417 18.625 20.4553 17.203 20.4799 17.131C20.449 17.1166 17.7138 16.0689 17.6855 12.9189Z" fill="black"/>
<path d="M15.0629 5.17696C15.7889 4.29558 16.2808 3.07088 16.147 1.85168C15.0993 1.89402 13.831 2.54807 13.0787 3.4286C12.4048 4.21007 11.8155 5.45425 11.9734 6.65143C13.1422 6.74202 14.3343 6.05665 15.0629 5.17696Z" fill="black"/>
</svg>
