<svg width="20" height="20" viewBox="0 0 20 20" fill="none" xmlns="http://www.w3.org/2000/svg">
<g clip-path="url(#clip0_1198_6971)">
<path d="M16.6667 1.66667H15.8333V0.833333C15.8333 0.61232 15.7455 0.400358 15.5893 0.244078C15.433 0.0877974 15.221 0 15 0C14.779 0 14.567 0.0877974 14.4107 0.244078C14.2545 0.400358 14.1667 0.61232 14.1667 0.833333V1.66667H5.83333V0.833333C5.83333 0.61232 5.74554 0.400358 5.58926 0.244078C5.43297 0.0877974 5.22101 0 5 0C4.77899 0 4.56702 0.0877974 4.41074 0.244078C4.25446 0.400358 4.16667 0.61232 4.16667 0.833333V1.66667H3.33333C2.44928 1.66667 1.60143 2.01786 0.976311 2.64298C0.35119 3.2681 0 4.11594 0 5L0 16.6667C0 17.5507 0.35119 18.3986 0.976311 19.0237C1.60143 19.6488 2.44928 20 3.33333 20H16.6667C17.5507 20 18.3986 19.6488 19.0237 19.0237C19.6488 18.3986 20 17.5507 20 16.6667V5C20 4.11594 19.6488 3.2681 19.0237 2.64298C18.3986 2.01786 17.5507 1.66667 16.6667 1.66667ZM18.3333 16.6667C18.3333 17.1087 18.1577 17.5326 17.8452 17.8452C17.5326 18.1577 17.1087 18.3333 16.6667 18.3333H3.33333C2.89131 18.3333 2.46738 18.1577 2.15482 17.8452C1.84226 17.5326 1.66667 17.1087 1.66667 16.6667V5C1.66667 4.55797 1.84226 4.13405 2.15482 3.82149C2.46738 3.50893 2.89131 3.33333 3.33333 3.33333H4.16667V4.16667C4.16667 4.38768 4.25446 4.59964 4.41074 4.75592C4.56702 4.9122 4.77899 5 5 5C5.22101 5 5.43297 4.9122 5.58926 4.75592C5.74554 4.59964 5.83333 4.38768 5.83333 4.16667V3.33333H14.1667V4.16667C14.1667 4.38768 14.2545 4.59964 14.4107 4.75592C14.567 4.9122 14.779 5 15 5C15.221 5 15.433 4.9122 15.5893 4.75592C15.7455 4.59964 15.8333 4.38768 15.8333 4.16667V3.33333H16.6667C17.1087 3.33333 17.5326 3.50893 17.8452 3.82149C18.1577 4.13405 18.3333 4.55797 18.3333 5V16.6667Z" fill="#4F46E5"/>
<path d="M15.8335 5.83337H4.16683C3.94582 5.83337 3.73385 5.92117 3.57757 6.07745C3.42129 6.23373 3.3335 6.44569 3.3335 6.66671C3.3335 6.88772 3.42129 7.09968 3.57757 7.25596C3.73385 7.41224 3.94582 7.50004 4.16683 7.50004H15.8335C16.0545 7.50004 16.2665 7.41224 16.4228 7.25596C16.579 7.09968 16.6668 6.88772 16.6668 6.66671C16.6668 6.44569 16.579 6.23373 16.4228 6.07745C16.2665 5.92117 16.0545 5.83337 15.8335 5.83337Z" fill="#4F46E5"/>
<path d="M5.8335 10H4.16683C3.94582 10 3.73385 10.0878 3.57757 10.2441C3.42129 10.4004 3.3335 10.6123 3.3335 10.8333C3.3335 11.0543 3.42129 11.2663 3.57757 11.4226C3.73385 11.5789 3.94582 11.6667 4.16683 11.6667H5.8335C6.05451 11.6667 6.26647 11.5789 6.42275 11.4226C6.57903 11.2663 6.66683 11.0543 6.66683 10.8333C6.66683 10.6123 6.57903 10.4004 6.42275 10.2441C6.26647 10.0878 6.05451 10 5.8335 10Z" fill="#4F46E5"/>
<path d="M5.8335 14.1666H4.16683C3.94582 14.1666 3.73385 14.2544 3.57757 14.4107C3.42129 14.567 3.3335 14.7789 3.3335 15C3.3335 15.221 3.42129 15.4329 3.57757 15.5892C3.73385 15.7455 3.94582 15.8333 4.16683 15.8333H5.8335C6.05451 15.8333 6.26647 15.7455 6.42275 15.5892C6.57903 15.4329 6.66683 15.221 6.66683 15C6.66683 14.7789 6.57903 14.567 6.42275 14.4107C6.26647 14.2544 6.05451 14.1666 5.8335 14.1666Z" fill="#4F46E5"/>
<path d="M10.8335 10H9.16683C8.94582 10 8.73385 10.0878 8.57757 10.2441C8.42129 10.4004 8.3335 10.6123 8.3335 10.8333C8.3335 11.0543 8.42129 11.2663 8.57757 11.4226C8.73385 11.5789 8.94582 11.6667 9.16683 11.6667H10.8335C11.0545 11.6667 11.2665 11.5789 11.4228 11.4226C11.579 11.2663 11.6668 11.0543 11.6668 10.8333C11.6668 10.6123 11.579 10.4004 11.4228 10.2441C11.2665 10.0878 11.0545 10 10.8335 10Z" fill="#4F46E5"/>
<path d="M10.8335 14.1666H9.16683C8.94582 14.1666 8.73385 14.2544 8.57757 14.4107C8.42129 14.567 8.3335 14.7789 8.3335 15C8.3335 15.221 8.42129 15.4329 8.57757 15.5892C8.73385 15.7455 8.94582 15.8333 9.16683 15.8333H10.8335C11.0545 15.8333 11.2665 15.7455 11.4228 15.5892C11.579 15.4329 11.6668 15.221 11.6668 15C11.6668 14.7789 11.579 14.567 11.4228 14.4107C11.2665 14.2544 11.0545 14.1666 10.8335 14.1666Z" fill="#4F46E5"/>
<path d="M15.8335 10H14.1668C13.9458 10 13.7339 10.0878 13.5776 10.2441C13.4213 10.4004 13.3335 10.6123 13.3335 10.8333C13.3335 11.0543 13.4213 11.2663 13.5776 11.4226C13.7339 11.5789 13.9458 11.6667 14.1668 11.6667H15.8335C16.0545 11.6667 16.2665 11.5789 16.4228 11.4226C16.579 11.2663 16.6668 11.0543 16.6668 10.8333C16.6668 10.6123 16.579 10.4004 16.4228 10.2441C16.2665 10.0878 16.0545 10 15.8335 10Z" fill="#4F46E5"/>
<path d="M15.8335 14.1666H14.1668C13.9458 14.1666 13.7339 14.2544 13.5776 14.4107C13.4213 14.567 13.3335 14.7789 13.3335 15C13.3335 15.221 13.4213 15.4329 13.5776 15.5892C13.7339 15.7455 13.9458 15.8333 14.1668 15.8333H15.8335C16.0545 15.8333 16.2665 15.7455 16.4228 15.5892C16.579 15.4329 16.6668 15.221 16.6668 15C16.6668 14.7789 16.579 14.567 16.4228 14.4107C16.2665 14.2544 16.0545 14.1666 15.8335 14.1666Z" fill="#4F46E5"/>
</g>
<defs>
<clipPath id="clip0_1198_6971">
<rect width="20" height="20" fill="white"/>
</clipPath>
</defs>
</svg>
