<svg width="50" height="50" viewBox="0 0 50 50" fill="none" xmlns="http://www.w3.org/2000/svg">
<rect width="50" height="50" rx="25" fill="#4F46E5" fill-opacity="0.2"/>
<path d="M32.2594 18.6611C32.5094 18.923 32.5871 19.1762 32.6214 19.5329C32.6063 19.9314 32.4787 20.2958 32.3383 20.6655C32.3187 20.7178 32.2991 20.7701 32.2789 20.824C31.9541 21.6851 31.6106 22.5393 31.2694 23.394C31.1932 23.5849 31.1173 23.776 31.0418 23.9671C30.9854 24.1095 30.9284 24.2516 30.8715 24.3938C30.8528 24.4414 30.8341 24.489 30.8148 24.538C30.5271 25.2502 30.1491 25.7853 29.4479 26.1164C28.6047 26.4494 27.7368 26.0918 26.9597 25.7577C26.8504 25.7103 26.7411 25.6627 26.6319 25.6151C26.5662 25.5865 26.5004 25.5579 26.4346 25.5293C26.0012 25.3409 25.5684 25.1512 25.1359 24.9606C25.1344 24.9867 25.1328 25.0129 25.1312 25.0398C25.0998 25.4604 25.0269 25.8732 24.9558 26.2884C24.9324 26.4251 24.9093 26.5618 24.8862 26.6985C24.8207 27.087 24.7547 27.4753 24.6885 27.8636C24.6479 28.1021 24.6075 28.3406 24.5674 28.5792C24.5521 28.6694 24.5368 28.7595 24.5213 28.8496C24.3104 29.7112 24.3104 29.7112 24.4318 30.5326C24.6635 30.7828 24.969 30.9606 25.2523 31.1469C25.4771 31.2967 25.6977 31.4528 25.919 31.6078C26.228 31.824 26.5389 32.0367 26.8531 32.2453C27.2247 32.4928 27.5937 32.744 27.9633 32.9944C27.9983 33.0181 28.0334 33.0419 28.0695 33.0663C28.1406 33.1145 28.2116 33.1626 28.2827 33.2107C28.4824 33.346 28.6823 33.4809 28.8825 33.6155C29.0007 33.695 29.1188 33.7746 29.2368 33.8542C29.2913 33.8909 29.3459 33.9276 29.4005 33.9641C30.4664 34.6781 30.4664 34.6781 30.7167 35.19C30.8076 35.6536 30.7476 36.0762 30.4884 36.4764C30.2599 36.7634 29.9778 36.8982 29.6239 36.9753C29.5575 36.9795 29.491 36.9814 29.4244 36.9816C29.3648 36.9819 29.3648 36.9819 29.304 36.9822C29.2606 36.9822 29.2172 36.9822 29.1725 36.9822C29.1261 36.9824 29.0798 36.9825 29.0321 36.9827C28.8765 36.9832 28.7208 36.9834 28.5652 36.9836C28.4538 36.9839 28.3423 36.9842 28.2309 36.9845C27.8962 36.9854 27.5614 36.9859 27.2267 36.9863C27.0688 36.9865 26.911 36.9868 26.7532 36.987C26.2282 36.9878 25.7032 36.9885 25.1782 36.9888C25.042 36.9889 24.9058 36.989 24.7696 36.9891C24.7358 36.9891 24.7019 36.9891 24.667 36.9892C24.1194 36.9896 23.5717 36.9907 23.024 36.9923C22.4612 36.9938 21.8983 36.9946 21.3354 36.9948C21.0196 36.9949 20.7038 36.9953 20.388 36.9965C20.0907 36.9976 19.7933 36.9978 19.496 36.9973C19.3872 36.9973 19.2783 36.9976 19.1695 36.9982C17.8768 37.0054 17.8768 37.0054 17.3959 36.6393C17.1161 36.3613 17.0216 36.0398 17 35.6522C17.0046 35.2589 17.128 34.9288 17.4107 34.6506C17.8553 34.286 18.372 34.2889 18.9215 34.2866C18.9931 34.2859 19.0648 34.285 19.1364 34.2841C19.3235 34.2819 19.5106 34.2805 19.6976 34.2793C19.8891 34.2779 20.0806 34.2757 20.2721 34.2736C20.6467 34.2696 21.0213 34.2664 21.3959 34.2638C21.4114 34.233 21.4268 34.2021 21.4427 34.1703C21.3982 34.1589 21.3982 34.1589 21.3528 34.1473C20.2343 33.8529 18.9299 33.4872 18.2285 32.4955C17.7483 31.6571 17.9203 30.656 18.0906 29.7548C18.107 29.6649 18.1232 29.5749 18.1395 29.4848C18.1827 29.2462 18.2269 29.0077 18.2714 28.7692C18.3175 28.5208 18.3627 28.2722 18.4079 28.0236C18.498 27.5299 18.5891 27.0363 18.6806 26.5428C18.7275 26.2896 18.7742 26.0364 18.8209 25.7832C18.8278 25.7456 18.8347 25.708 18.8419 25.6692C18.8554 25.5956 18.869 25.5221 18.8825 25.4485C18.9602 25.0271 19.0378 24.6058 19.1166 24.1846C19.1374 24.0728 19.1583 23.9609 19.1792 23.849C19.1889 23.7966 19.1987 23.7442 19.2088 23.6902C19.2836 23.2855 19.3521 22.8798 19.4156 22.473C19.5479 21.6469 19.9222 20.8596 20.6153 20.3565C21.3215 19.8715 22.086 19.6882 22.9387 19.8181C23.5968 19.9557 24.1097 20.2758 24.6567 20.6538C24.7325 20.7057 24.7325 20.7057 24.8097 20.7587C24.9655 20.8655 25.1208 20.9729 25.2762 21.0804C25.3472 21.1295 25.3472 21.1295 25.4197 21.1797C25.8147 21.4531 26.2087 21.728 26.6018 22.0042C26.9587 22.255 27.3158 22.5055 27.6779 22.7488C27.7055 22.7674 27.733 22.786 27.7613 22.8052C28.1251 23.0566 28.1251 23.0566 28.5487 23.0906C28.7649 22.9126 28.8548 22.7273 28.9544 22.4739C28.9701 22.4355 28.9857 22.3971 29.0018 22.3576C29.0541 22.2282 29.1054 22.0985 29.1564 21.9686C29.1748 21.922 29.1932 21.8755 29.2121 21.8275C29.3735 21.4178 29.5327 21.0073 29.6913 20.5966C29.7515 20.4408 29.812 20.2851 29.8726 20.1295C29.8905 20.083 29.9083 20.0366 29.9267 19.9887C30.1708 19.363 30.429 18.7129 31.0731 18.4156C31.4771 18.2593 31.9269 18.4133 32.2594 18.6611Z" fill="#4F46E5"/>
<path d="M23.3129 13.2265C23.3566 13.2458 23.4003 13.2651 23.4453 13.285C24.1097 13.612 24.5494 14.1502 24.8171 14.831C25.0494 15.5861 25.0291 16.3995 24.69 17.1197C24.3113 17.8069 23.7792 18.2622 23.0324 18.5092C22.2469 18.7278 21.3854 18.6564 20.6715 18.258C20.0521 17.8654 19.608 17.3084 19.4276 16.5861C19.2533 15.7558 19.3664 14.9083 19.8173 14.1902C20.2086 13.6135 20.7936 13.22 21.4746 13.0581C22.0699 12.9563 22.7597 12.974 23.3129 13.2265Z" fill="#4F46E5"/>
</svg>
