<svg width="20" height="20" viewBox="0 0 20 20" fill="none" xmlns="http://www.w3.org/2000/svg">
<path d="M10 12.4C9.24167 12.4 8.625 11.7833 8.625 11.025V8.9667C8.625 8.20836 9.24167 7.59167 10 7.59167C10.7583 7.59167 11.375 8.20836 11.375 8.9667V11.025C11.375 11.7833 10.7583 12.4 10 12.4Z" stroke="#4F46E5" stroke-width="1.5" stroke-linecap="round"/>
<path d="M14.1499 11.225C13.9833 13.375 12.1833 15.0583 9.99992 15.0583C7.69992 15.0583 5.83325 13.1917 5.83325 10.8917V9.10832C5.83325 6.80832 7.69992 4.94165 9.99992 4.94165C12.1583 4.94165 13.9333 6.58331 14.1416 8.68331" stroke="#4F46E5" stroke-width="1.5" stroke-linecap="round"/>
<path d="M12.5 1.66663H14.1667C16.6667 1.66663 18.3333 3.33329 18.3333 5.83329V7.49996" stroke="#4F46E5" stroke-width="1.5" stroke-miterlimit="10" stroke-linecap="round" stroke-linejoin="round"/>
<path d="M1.66675 7.49996V5.83329C1.66675 3.33329 3.33341 1.66663 5.83341 1.66663H7.50008" stroke="#4F46E5" stroke-width="1.5" stroke-miterlimit="10" stroke-linecap="round" stroke-linejoin="round"/>
<path d="M12.5 18.3333H14.1667C16.6667 18.3333 18.3333 16.6667 18.3333 14.1667V12.5" stroke="#4F46E5" stroke-width="1.5" stroke-miterlimit="10" stroke-linecap="round" stroke-linejoin="round"/>
<path d="M1.66675 12.5V14.1667C1.66675 16.6667 3.33341 18.3333 5.83341 18.3333H7.50008" stroke="#4F46E5" stroke-width="1.5" stroke-miterlimit="10" stroke-linecap="round" stroke-linejoin="round"/>
</svg>
