<svg width="50" height="50" viewBox="0 0 50 50" fill="none" xmlns="http://www.w3.org/2000/svg">
<rect width="50" height="50" rx="25" fill="white" fill-opacity="0.4"/>
<path d="M24.8383 15.0548C25.0141 14.8792 25.2524 14.7806 25.5008 14.7806C25.7493 14.7806 25.9876 14.8792 26.1633 15.0548L37.0258 25.9173C37.1124 26.0068 37.2158 26.0782 37.3302 26.1273C37.4447 26.1763 37.5677 26.2021 37.6922 26.2032C37.8166 26.2042 37.9401 26.1804 38.0553 26.1332C38.1705 26.086 38.2751 26.0164 38.3631 25.9283C38.4511 25.8402 38.5206 25.7355 38.5677 25.6203C38.6148 25.505 38.6385 25.3816 38.6373 25.2571C38.6362 25.1326 38.6103 25.0096 38.5611 24.8953C38.5119 24.7809 38.4404 24.6775 38.3508 24.5911L27.4896 13.7286C27.2284 13.4674 26.9184 13.2602 26.5771 13.1189C26.2359 12.9775 25.8702 12.9048 25.5008 12.9048C25.1315 12.9048 24.7658 12.9775 24.4245 13.1189C24.0833 13.2602 23.7733 13.4674 23.5121 13.7286L12.6496 24.5911C12.5601 24.6776 12.4887 24.7811 12.4396 24.8955C12.3906 25.0099 12.3648 25.1329 12.3637 25.2574C12.3627 25.3819 12.3865 25.5053 12.4337 25.6205C12.4809 25.7357 12.5505 25.8403 12.6386 25.9283C12.7267 26.0163 12.8314 26.0859 12.9466 26.1329C13.0619 26.18 13.1853 26.2037 13.3098 26.2025C13.4343 26.2014 13.5573 26.1755 13.6716 26.1263C13.786 26.0771 13.8894 26.0056 13.9758 25.9161L24.8383 15.0548Z" fill="#FAFAFA"/>
<path d="M25.5011 17.0422L35.6999 27.241C35.7374 27.2785 35.7749 27.3135 35.8136 27.3485V35.096C35.8136 36.3897 34.7636 37.4397 33.4699 37.4397H29.2511C29.0025 37.4397 28.764 37.341 28.5882 37.1651C28.4124 36.9893 28.3136 36.7509 28.3136 36.5022V30.8772C28.3136 30.6286 28.2149 30.3901 28.039 30.2143C27.8632 30.0385 27.6248 29.9397 27.3761 29.9397H23.6261C23.3775 29.9397 23.139 30.0385 22.9632 30.2143C22.7874 30.3901 22.6886 30.6286 22.6886 30.8772V36.5022C22.6886 36.7509 22.5899 36.9893 22.414 37.1651C22.2382 37.341 21.9998 37.4397 21.7511 37.4397H17.5324C16.9108 37.4397 16.3146 37.1928 15.8751 36.7533C15.4356 36.3137 15.1886 35.7176 15.1886 35.096V27.3485C15.2275 27.3137 15.2654 27.2778 15.3024 27.241L25.5011 17.0422Z" fill="#FAFAFA"/>
</svg>
