<svg width="50" height="50" viewBox="0 0 50 50" fill="none" xmlns="http://www.w3.org/2000/svg">
<rect width="50" height="50" rx="25" fill="#4F46E5" fill-opacity="0.2"/>
<path d="M16.7543 13.0003C16.7917 13.0002 16.8291 13.0001 16.8676 13C16.9084 13.0001 16.9492 13.0003 16.9912 13.0004C17.0348 13.0004 17.0783 13.0003 17.1232 13.0003C17.2694 13.0002 17.4157 13.0005 17.5619 13.0007C17.6666 13.0007 17.7713 13.0007 17.876 13.0007C18.1606 13.0007 18.4452 13.001 18.7298 13.0013C19.027 13.0016 19.3243 13.0016 19.6216 13.0017C20.1207 13.0018 20.6198 13.0021 21.1188 13.0025C21.6329 13.0029 22.1469 13.0033 22.661 13.0035C22.7085 13.0035 22.7085 13.0035 22.757 13.0035C22.916 13.0036 23.0749 13.0036 23.2339 13.0037C24.5526 13.0042 25.8714 13.005 27.1901 13.006C27.1901 13.0339 27.1902 13.0617 27.1903 13.0903C27.192 13.7669 27.1948 14.4435 27.1987 15.1201C27.2006 15.4473 27.2021 15.7745 27.2028 16.1017C27.2034 16.4173 27.2051 16.7329 27.2073 17.0485C27.208 17.1691 27.2084 17.2896 27.2084 17.4102C27.2085 17.5788 27.2098 17.7473 27.2113 17.9158C27.2111 17.9659 27.2109 18.016 27.2106 18.0677C27.2094 18.3339 27.2094 18.3339 27.3321 18.5616C27.3625 18.5818 27.3928 18.6019 27.4241 18.6227C27.6403 18.5587 27.8267 18.4675 28.0194 18.3525C28.0485 18.3354 28.0775 18.3183 28.1075 18.3007C28.1686 18.2647 28.2296 18.2286 28.2906 18.1924C28.3832 18.1374 28.476 18.0827 28.5688 18.0282C28.6285 17.9929 28.6882 17.9577 28.7478 17.9225C28.7752 17.9063 28.8025 17.8902 28.8307 17.8735C28.9617 17.7956 29.0854 17.7162 29.2077 17.6251C29.3431 17.5462 29.3431 17.5462 29.4615 17.5487C29.5966 17.6004 29.7128 17.664 29.8362 17.7396C29.9105 17.7847 29.9105 17.7847 29.9862 17.8307C30.0375 17.8623 30.0889 17.8939 30.1417 17.9265C30.293 18.0188 30.4444 18.111 30.5961 18.2028C30.6982 18.2651 30.7996 18.3285 30.9005 18.3929C30.9493 18.4232 30.9981 18.4536 31.0484 18.4849C31.0918 18.5125 31.1352 18.5401 31.1799 18.5686C31.3297 18.6449 31.3297 18.6449 31.5898 18.5759C31.6052 16.7379 31.6206 14.8998 31.6366 13.006C32.5479 13.006 33.4591 13.006 34.3981 13.006C34.3981 19.4933 34.3981 25.9806 34.3981 32.6645C25.4963 32.6762 25.4963 32.6762 22.6845 32.6784C21.8535 32.6799 21.8535 32.6799 21.0225 32.6818C20.652 32.6825 20.2816 32.6828 19.9112 32.6828C19.4838 32.6827 19.0564 32.6833 18.6291 32.6847C18.4105 32.6854 18.192 32.6858 17.9734 32.6853C17.7755 32.6849 17.5777 32.6854 17.3798 32.6866C17.3085 32.6868 17.2372 32.6868 17.1659 32.6864C16.3993 32.6825 15.7532 32.8637 15.1906 33.3967C15.1144 33.4601 15.1144 33.4601 15.0208 33.4601C15.0176 31.0651 15.0151 28.6701 15.0136 26.2751C15.0134 25.9923 15.0132 25.7096 15.0131 25.4268C15.013 25.3706 15.013 25.3143 15.0129 25.2563C15.0123 24.3448 15.0112 23.4333 15.0099 22.5218C15.0086 21.5866 15.0078 20.6514 15.0076 19.7162C15.0074 19.1391 15.0068 18.562 15.0056 17.9848C15.0049 17.5891 15.0047 17.1934 15.0048 16.7977C15.0049 16.5694 15.0048 16.3411 15.004 16.1127C15.0033 15.9036 15.0033 15.6944 15.0038 15.4853C15.0039 15.4097 15.0037 15.3342 15.0032 15.2586C14.9996 14.6053 15.0855 14.0581 15.5358 13.5569C15.8622 13.2457 16.2929 13 16.7543 13.0003Z" fill="#4F46E5"/>
<path d="M16.8666 33.2204C16.9121 33.2203 16.9121 33.2203 16.9585 33.2203C17.0605 33.2201 17.1625 33.2203 17.2646 33.2205C17.3383 33.2205 17.412 33.2205 17.4857 33.2204C17.6886 33.2203 17.8915 33.2205 18.0944 33.2207C18.3131 33.2209 18.5318 33.2209 18.7504 33.2208C19.1294 33.2208 19.5084 33.221 19.8874 33.2212C20.4353 33.2216 20.9833 33.2217 21.5312 33.2218C22.4202 33.2219 23.3092 33.2222 24.1981 33.2226C25.0618 33.2231 25.9254 33.2234 26.7891 33.2236C26.8689 33.2236 26.8689 33.2236 26.9504 33.2236C27.2173 33.2237 27.4843 33.2238 27.7513 33.2238C29.9668 33.2243 32.1823 33.2252 34.3978 33.2262C34.3978 34.4618 34.3978 35.6975 34.3978 36.9706C32.1236 36.9758 29.8495 36.9801 27.5753 36.9826C27.3068 36.9829 27.0382 36.9832 26.7697 36.9835C26.7162 36.9836 26.6627 36.9836 26.6077 36.9837C25.7423 36.9847 24.8769 36.9865 24.0115 36.9887C23.1233 36.9909 22.2352 36.9922 21.3471 36.9927C20.7991 36.993 20.2512 36.994 19.7033 36.9959C19.3274 36.9971 18.9516 36.9975 18.5757 36.9972C18.359 36.997 18.1422 36.9973 17.9254 36.9985C17.7267 36.9997 17.528 36.9997 17.3293 36.9989C17.2577 36.9988 17.186 36.9991 17.1144 36.9999C16.5298 37.0055 16.0411 36.8886 15.5838 36.506C15.2072 36.1222 15.0204 35.6622 15 35.1306C15.017 34.5032 15.2449 34.0611 15.6874 33.6357C15.8977 33.4546 16.1139 33.3537 16.3778 33.273C16.4047 33.2647 16.4315 33.2564 16.4592 33.2479C16.5967 33.2197 16.7262 33.2204 16.8666 33.2204ZM17.8756 35.0516C17.868 35.1736 17.868 35.1736 17.9224 35.2856C18.0617 35.4152 18.1549 35.4436 18.3432 35.444C18.4143 35.4446 18.4143 35.4446 18.4867 35.4453C18.5646 35.4449 18.5646 35.4449 18.6441 35.4445C18.6993 35.4448 18.7545 35.4451 18.8114 35.4454C18.9648 35.446 19.1181 35.446 19.2715 35.4458C19.4369 35.4456 19.6022 35.4463 19.7676 35.4469C20.0916 35.4479 20.4156 35.4481 20.7396 35.448C21.0029 35.448 21.2661 35.4481 21.5294 35.4485C21.6052 35.4486 21.681 35.4487 21.7568 35.4488C21.8134 35.4488 21.8134 35.4488 21.8711 35.4489C22.5848 35.4498 23.2985 35.4498 24.0122 35.4494C24.6653 35.4492 25.3184 35.4502 25.9716 35.4517C26.642 35.4533 27.3124 35.454 27.9827 35.4538C28.3592 35.4537 28.7357 35.4539 29.1122 35.4551C29.4327 35.4561 29.7531 35.4562 30.0736 35.4553C30.2372 35.4549 30.4007 35.4549 30.5643 35.4558C30.7415 35.4567 30.9186 35.4561 31.0959 35.4551C31.1477 35.4557 31.1995 35.4563 31.2529 35.4569C31.5478 35.4592 31.5478 35.4592 31.7871 35.3072C31.8283 35.2502 31.8283 35.2502 31.8703 35.192C31.8421 35.0974 31.8107 35.0038 31.7767 34.9112C31.662 34.8538 31.5877 34.8584 31.4594 34.8581C31.3881 34.8578 31.3881 34.8578 31.3154 34.8575C31.2365 34.8575 31.2365 34.8575 31.156 34.8575C31.0726 34.8572 31.0726 34.8572 30.9876 34.857C30.8329 34.8565 30.6782 34.8563 30.5235 34.8562C30.3568 34.856 30.1901 34.8556 30.0234 34.8552C29.6207 34.8542 29.218 34.8538 28.8152 34.8533C28.6257 34.8531 28.4362 34.8529 28.2467 34.8526C27.617 34.8518 26.9872 34.8512 26.3575 34.8508C26.194 34.8507 26.0306 34.8507 25.8671 34.8506C25.8265 34.8505 25.7858 34.8505 25.744 34.8505C25.0853 34.8501 24.4267 34.8489 23.7681 34.8474C23.0924 34.8459 22.4166 34.845 21.7409 34.8449C21.3613 34.8448 20.9817 34.8443 20.6022 34.8431C20.279 34.8421 19.9558 34.8418 19.6326 34.8422C19.4677 34.8424 19.3027 34.8423 19.1377 34.8414C18.9591 34.8405 18.7804 34.8409 18.6018 34.8415C18.5232 34.8408 18.5232 34.8408 18.443 34.84C18.3953 34.8404 18.3475 34.8408 18.2983 34.8412C18.257 34.8412 18.2158 34.8411 18.1733 34.8411C18.0256 34.8722 17.9681 34.9348 17.8756 35.0516Z" fill="#4F46E5"/>
<path d="M27.7982 13.0061C28.8794 13.0061 29.9606 13.0061 31.0746 13.0061C31.0746 14.597 31.0746 16.188 31.0746 17.8271C30.8472 17.7513 30.7055 17.687 30.51 17.5605C30.4568 17.5267 30.4035 17.4929 30.3502 17.459C30.2675 17.4061 30.1849 17.3529 30.1025 17.2994C30.0222 17.2474 29.9415 17.1962 29.8606 17.1451C29.8129 17.1143 29.7651 17.0836 29.716 17.0519C29.5548 16.9739 29.4728 16.958 29.296 16.9846C29.1782 17.0418 29.0744 17.0991 28.9647 17.1689C28.9342 17.1876 28.9036 17.2063 28.8722 17.2256C28.7751 17.2851 28.6787 17.3454 28.5822 17.4058C28.485 17.4661 28.3877 17.5262 28.2903 17.5861C28.2298 17.6234 28.1695 17.6609 28.1093 17.6986C27.9022 17.8271 27.9022 17.8271 27.7982 17.8271C27.7982 16.2362 27.7982 14.6452 27.7982 13.0061Z" fill="#4F46E5"/>
</svg>
