<svg width="17" height="17" viewBox="0 0 17 17" fill="none" xmlns="http://www.w3.org/2000/svg">
<path d="M13.2354 13.8539C12.6531 13.083 11.8998 12.4578 11.0347 12.0276C10.1697 11.5973 9.21655 11.3739 8.25042 11.3748C7.28429 11.3739 6.33115 11.5973 5.4661 12.0276C4.60104 12.4578 3.8477 13.083 3.26542 13.8539M13.2354 13.8539C14.3717 12.8432 15.173 11.511 15.5347 10.034C15.8965 8.55694 15.8006 7.00483 15.26 5.58349C14.7193 4.16215 13.7594 2.93873 12.5074 2.0755C11.2555 1.21227 9.7707 0.75 8.25 0.75C6.7293 0.75 5.24453 1.21227 3.99259 2.0755C2.74065 2.93873 1.78069 4.16215 1.24003 5.58349C0.699368 7.00483 0.603544 8.55694 0.965267 10.034C1.32699 11.511 2.12917 12.8432 3.26542 13.8539M13.2354 13.8539C11.8638 15.0774 10.0884 15.7524 8.25042 15.7498C6.41211 15.7526 4.63728 15.0776 3.26542 13.8539M10.7504 6.37475C10.7504 7.0378 10.487 7.67368 10.0182 8.14252C9.54934 8.61136 8.91346 8.87475 8.25042 8.87475C7.58738 8.87475 6.95149 8.61136 6.48265 8.14252C6.01381 7.67368 5.75042 7.0378 5.75042 6.37475C5.75042 5.71171 6.01381 5.07583 6.48265 4.60699C6.95149 4.13815 7.58738 3.87475 8.25042 3.87475C8.91346 3.87475 9.54934 4.13815 10.0182 4.60699C10.487 5.07583 10.7504 5.71171 10.7504 6.37475Z" stroke="#4F46E5" stroke-width="1.5" stroke-linecap="round" stroke-linejoin="round"/>
</svg>
