<svg width="108" height="139" viewBox="0 0 108 139" fill="none" xmlns="http://www.w3.org/2000/svg">
<path d="M96.5949 13.4145C96.418 13.4145 96.3674 13.6799 96.4559 13.8316C96.5444 13.9833 96.6961 14.0781 96.7972 14.2235C96.8485 14.2972 96.8834 14.381 96.8998 14.4692C96.9161 14.5575 96.9135 14.6483 96.892 14.7354C96.8837 14.7869 96.8617 14.8351 96.8284 14.8752C96.795 14.9152 96.7515 14.9455 96.7024 14.963C96.6346 14.9847 96.5616 14.9847 96.4938 14.963C96.1614 14.8727 95.8599 14.6935 95.6216 14.4447C95.5058 14.3179 95.4297 14.1599 95.4027 13.9902C95.3758 13.8206 95.3991 13.6468 95.4699 13.4903C95.5294 13.3859 95.6147 13.2985 95.7176 13.2366C95.8205 13.1746 95.9376 13.1401 96.0577 13.1364C96.1778 13.1371 96.2956 13.1689 96.3997 13.2287C96.5039 13.2885 96.5907 13.3743 96.6518 13.4777L96.5949 13.4145Z" fill="#E5F6FF"/>
<path opacity="0.5" d="M103.168 22.8951C103.289 22.8461 103.399 22.773 103.49 22.6803C103.535 22.6318 103.565 22.5714 103.576 22.5063C103.588 22.4413 103.58 22.3743 103.554 22.3137C103.446 22.124 103.162 22.162 102.978 22.0419C102.795 21.9218 102.726 21.6563 102.517 21.6058C102.308 21.5552 102.119 21.7827 102.125 21.9976C102.153 22.2103 102.253 22.4068 102.41 22.5538C102.525 22.7071 102.68 22.8253 102.858 22.8951C102.948 22.9276 103.047 22.9277 103.137 22.8954C103.227 22.8631 103.303 22.8004 103.351 22.7182L103.168 22.8951Z" fill="#E5F6FF"/>
<path d="M101.803 22.9014C102.062 22.8445 102.011 22.4021 101.765 22.2693C101.635 22.2375 101.499 22.2323 101.367 22.254C101.234 22.2757 101.107 22.3239 100.994 22.3958C101.054 22.5699 101.164 22.7227 101.31 22.835C101.456 22.9474 101.632 23.0144 101.816 23.0278L101.803 22.9014Z" fill="#E5F6FF"/>
<path opacity="0.5" d="M103.219 19.8994C103.125 19.9027 103.033 19.8795 102.953 19.8325C102.872 19.7856 102.807 19.7167 102.764 19.6339C102.725 19.5499 102.711 19.4565 102.723 19.3647C102.735 19.2728 102.773 19.1865 102.833 19.1156C102.915 19.0145 103.08 18.9639 103.162 19.0588C103.193 19.1031 103.211 19.156 103.212 19.2105L103.307 19.9057H103.219V19.8994Z" fill="#E5F6FF"/>
<path opacity="0.5" d="M101.455 16.6884C101.487 16.4609 101.266 16.2839 101.064 16.1765C100.861 16.069 100.621 15.93 100.602 15.6961C100.597 15.6646 100.601 15.6325 100.612 15.6027C100.623 15.5729 100.641 15.5463 100.665 15.5255C100.792 15.4243 100.956 15.576 101.101 15.6455C101.226 15.6872 101.356 15.7127 101.487 15.7214C101.638 15.755 101.775 15.8332 101.881 15.946C101.987 16.0587 102.057 16.2006 102.081 16.3534C102.053 16.4317 102.003 16.5002 101.936 16.5505C101.87 16.6008 101.791 16.6308 101.708 16.6368C101.625 16.6428 101.542 16.6246 101.469 16.5844C101.396 16.5442 101.337 16.4837 101.297 16.4103L101.455 16.6884Z" fill="#E5F6FF"/>
<path opacity="0.5" d="M103.509 15.6202L103.731 15.4685C103.719 15.3952 103.683 15.3282 103.627 15.2787C103.572 15.2291 103.501 15.2002 103.427 15.1968C103.391 15.1958 103.355 15.2024 103.322 15.2162C103.288 15.23 103.258 15.2507 103.233 15.2769C103.208 15.3031 103.189 15.3342 103.176 15.3683C103.164 15.4024 103.159 15.4387 103.162 15.4749C103.168 15.5101 103.183 15.5433 103.204 15.5721C103.225 15.6009 103.252 15.6245 103.284 15.641C103.316 15.6574 103.351 15.6664 103.387 15.6672C103.423 15.668 103.458 15.6606 103.491 15.6455L103.509 15.6202Z" fill="#E5F6FF"/>
<path d="M58.7351 100.429C57.5362 99.4774 56.1351 98.8136 54.6395 98.4883C54.4007 98.4234 54.1511 98.4083 53.9063 98.4441C53.6784 98.516 53.4722 98.644 53.3066 98.8162C53.1409 98.9885 53.0211 99.1995 52.9582 99.4301C52.7819 99.9912 52.7779 100.592 52.9469 101.156C53.116 101.719 53.4502 102.219 53.9063 102.59C54.37 102.946 54.9125 103.184 55.4879 103.286C56.0634 103.387 56.6547 103.348 57.2119 103.172C57.8372 103.014 58.3754 102.617 58.7099 102.066C58.8675 101.786 58.9222 101.459 58.8645 101.143C58.8068 100.827 58.6403 100.54 58.3938 100.334C58.347 100.351 58.305 100.379 58.2719 100.416C58.2387 100.453 58.2154 100.498 58.2041 100.546C58.1928 100.595 58.1938 100.645 58.2071 100.693C58.2203 100.741 58.2454 100.785 58.2801 100.821L58.7351 100.429Z" fill="white"/>
<path d="M54.0959 101.187C54.0186 100.883 53.8648 100.604 53.6491 100.376C53.4333 100.148 53.1629 99.979 52.8634 99.8851C52.6326 100.094 52.4548 100.355 52.3449 100.646C52.235 100.937 52.1961 101.251 52.2314 101.56C52.2811 101.868 52.4507 102.143 52.7032 102.325C52.9556 102.508 53.2701 102.583 53.5776 102.533C53.7207 102.489 53.8492 102.407 53.9502 102.296C54.0512 102.185 54.121 102.05 54.1525 101.903C54.184 101.757 54.1761 101.604 54.1295 101.462C54.0829 101.319 53.9993 101.192 53.8874 101.092L54.0959 101.187Z" fill="white"/>
<path d="M49.0963 98.6906C49.1489 98.5549 49.1689 98.4086 49.1547 98.2637C49.1404 98.1188 49.0923 97.9792 49.0141 97.8563C48.8944 97.907 48.7867 97.9824 48.6981 98.0775C48.6541 98.1253 48.6252 98.1849 48.6151 98.2491C48.605 98.3132 48.6141 98.3789 48.6412 98.4378C48.7234 98.5958 48.9383 98.6085 49.1153 98.6021L49.0141 98.7096L49.0963 98.6906Z" fill="white"/>
<path d="M50.2025 98.994C50.288 99.0212 50.363 99.0742 50.4173 99.1457C50.3121 99.1791 50.2007 99.1885 50.0913 99.1731C49.9819 99.1578 49.8774 99.1182 49.7853 99.0572C49.6715 99.0003 49.5451 98.9055 49.5578 98.7791C49.5704 98.6527 49.6399 98.6337 49.6779 98.5516C49.7158 98.4694 49.7158 98.1471 49.8864 98.0902C49.9349 98.0804 49.9853 98.0876 50.029 98.1107C50.0728 98.1337 50.1072 98.1711 50.1266 98.2166C50.1669 98.3079 50.1821 98.4082 50.1709 98.5073V99.1394L50.2025 98.994Z" fill="white"/>
<path opacity="0.5" d="M36.4364 93.8744C36.3543 93.71 36.0698 93.8112 36.0382 93.9944C36.0342 94.0849 36.0495 94.1751 36.0833 94.2591C36.1171 94.343 36.1686 94.4188 36.2342 94.4811C36.3415 94.4175 36.4276 94.3235 36.4815 94.211C36.5355 94.0985 36.555 93.9726 36.5376 93.8491L36.4364 93.8744Z" fill="white"/>
<path d="M33.4721 99.6703C33.4801 99.7121 33.4722 99.7553 33.45 99.7915C33.4278 99.8278 33.3928 99.8544 33.352 99.8662C33.3093 99.8755 33.265 99.8752 33.2224 99.8653C33.1798 99.8555 33.1399 99.8364 33.1055 99.8094C33.0614 99.785 33.026 99.7474 33.0044 99.7019C32.992 99.6759 32.9852 99.6477 32.9842 99.6189C32.9833 99.5902 32.9884 99.5615 32.9991 99.5348C33.0097 99.5081 33.0258 99.4839 33.0463 99.4637C33.0668 99.4435 33.0913 99.4278 33.1181 99.4175C33.1736 99.4004 33.2334 99.4045 33.2859 99.429C33.3385 99.4536 33.3801 99.4968 33.4026 99.5502C33.4212 99.6059 33.4194 99.6665 33.3974 99.7209C33.3754 99.7754 33.3346 99.8202 33.2825 99.8473L33.4721 99.6703Z" fill="white"/>
<path d="M46.6881 99.961C46.7318 99.9581 46.774 99.9442 46.8109 99.9205C46.8477 99.8969 46.8779 99.8643 46.8988 99.8258C46.9196 99.7873 46.9303 99.7441 46.93 99.7004C46.9296 99.6566 46.9182 99.6136 46.8967 99.5755C46.8004 99.5713 46.7052 99.5979 46.6249 99.6513C46.5856 99.6772 46.5565 99.7159 46.5426 99.7609C46.5288 99.8059 46.5311 99.8544 46.5491 99.8978C46.587 99.9863 46.7261 100.018 46.7766 99.9358L46.6881 99.961Z" fill="white"/>
<path d="M50.7712 99.6831C50.8427 99.5962 50.8931 99.4939 50.9183 99.3842C50.9435 99.2745 50.9429 99.1604 50.9166 99.051L50.4046 99.2217C50.3224 99.2401 50.2462 99.2792 50.1834 99.3355C50.1595 99.3688 50.1429 99.4067 50.1348 99.4469C50.1266 99.487 50.127 99.5284 50.1359 99.5684C50.1449 99.6084 50.1622 99.6461 50.1867 99.6789C50.2112 99.7117 50.2424 99.739 50.2782 99.7589C50.3535 99.7925 50.4372 99.8026 50.5184 99.7879C50.5996 99.7733 50.6744 99.7346 50.7333 99.6768L50.7712 99.6831Z" fill="white"/>
<path opacity="0.5" d="M35.9182 99.1331L35.7412 99.1773C35.7306 99.2259 35.7366 99.2767 35.7584 99.3214C35.7802 99.3661 35.8165 99.4022 35.8613 99.4238C35.9082 99.4401 35.9597 99.4373 36.0046 99.416C36.0495 99.3947 36.0843 99.3567 36.1014 99.31C36.1063 99.2863 36.1057 99.2617 36.0996 99.2382C36.0934 99.2147 36.082 99.193 36.0661 99.1746C36.0502 99.1563 36.0303 99.1419 36.0079 99.1325C35.9856 99.1231 35.9613 99.1189 35.9371 99.1204L35.9182 99.1331Z" fill="white"/>
<path d="M47.9649 99.6325C47.927 99.7399 48.066 99.841 48.1861 99.8347C48.3016 99.8047 48.4155 99.7688 48.5274 99.7273C48.5868 99.7149 48.6483 99.7158 48.7073 99.7301C48.7663 99.7443 48.8214 99.7714 48.8687 99.8094C48.8982 99.83 48.9223 99.8574 48.9388 99.8894C48.9553 99.9213 48.9638 99.9568 48.9635 99.9927C48.9468 100.038 48.9209 100.078 48.8877 100.113C48.7407 100.295 48.5459 100.433 48.3251 100.511C48.2148 100.549 48.0956 100.554 47.9828 100.523C47.8701 100.493 47.7691 100.429 47.6931 100.34C47.6428 100.276 47.6108 100.199 47.6004 100.118C47.59 100.037 47.6015 99.9551 47.6338 99.8801C47.6662 99.8051 47.7181 99.7402 47.7841 99.6922C47.8501 99.6442 47.9278 99.6148 48.0091 99.6072L47.9649 99.6325Z" fill="white"/>
<path d="M49.7536 97.0156C49.7902 96.9521 49.8014 96.877 49.785 96.8055C49.7686 96.734 49.7258 96.6713 49.6651 96.6301C49.6007 96.5929 49.5277 96.5734 49.4534 96.5734C49.379 96.5734 49.306 96.5929 49.2416 96.6301C49.1847 96.668 49.1279 96.7249 49.1531 96.7881C49.1784 96.8513 49.21 96.8513 49.2543 96.8703L49.7599 97.0725L49.7536 97.0156Z" fill="white"/>
<path d="M43.0222 95.2777C43.0088 95.3507 42.9789 95.4196 42.9348 95.4793C42.8906 95.5389 42.8334 95.5877 42.7676 95.6218C42.7017 95.656 42.6289 95.6746 42.5547 95.6763C42.4806 95.678 42.407 95.6627 42.3396 95.6316C42.3773 95.3972 42.4803 95.1782 42.6367 94.9996C42.6758 94.9541 42.7243 94.9177 42.7789 94.8927C42.8334 94.8677 42.8927 94.8547 42.9527 94.8547C43.0127 94.8547 43.072 94.8677 43.1265 94.8927C43.181 94.9177 43.2296 94.9541 43.2687 94.9996L43.2055 95.4041L43.0222 95.2777Z" fill="white"/>
<path d="M45.7338 98.5959C45.7338 98.5327 45.7022 98.4695 45.6896 98.4062C45.5908 98.4079 45.4962 98.4462 45.4241 98.5137C45.3609 98.5895 45.3862 98.7349 45.4873 98.7412C45.5239 98.7383 45.5589 98.7252 45.5884 98.7033L45.8981 98.5327L45.7338 98.5959Z" fill="white"/>
<path d="M42.4093 98.0269C42.3431 97.8847 42.2509 97.7561 42.1375 97.6476C42.0785 97.5964 42.0056 97.5636 41.9281 97.5535C41.8505 97.5434 41.7717 97.5563 41.7014 97.5907C41.6366 97.6353 41.5879 97.6996 41.5624 97.774C41.5297 97.8838 41.542 98.0021 41.5965 98.1029C41.651 98.2036 41.7433 98.2786 41.8531 98.3113C41.9629 98.344 42.0812 98.3317 42.182 98.2772C42.2827 98.2227 42.3577 98.1303 42.3904 98.0205L42.4093 98.0269Z" fill="white"/>
<path d="M41.594 96.5794L41.3159 96.4277C41.2592 96.4863 41.218 96.5579 41.1958 96.6363C41.2528 96.6883 41.3272 96.7171 41.4044 96.7171C41.4815 96.7171 41.5559 96.6883 41.613 96.6363L41.594 96.5794Z" fill="white"/>
<path d="M50.4742 91.8519C49.8775 91.7128 49.2569 91.7128 48.6602 91.8519C48.5637 91.8705 48.4715 91.9069 48.3884 91.9593C48.3184 92.0246 48.2651 92.1058 48.2332 92.196C48.2013 92.2862 48.1917 92.3829 48.2051 92.4776C48.2367 92.7091 48.3365 92.9259 48.4919 93.1004C48.6473 93.2749 48.8511 93.3992 49.0774 93.4573C49.3059 93.5085 49.5433 93.5043 49.7698 93.4449C49.9964 93.3855 50.2054 93.2727 50.3794 93.116C50.5747 92.9581 50.7033 92.7324 50.7396 92.4839C50.7484 92.3553 50.7123 92.2276 50.6373 92.1227C50.5624 92.0178 50.4533 91.9422 50.3288 91.9088C50.315 91.9231 50.3049 91.9407 50.2995 91.9598C50.2941 91.979 50.2936 91.9993 50.298 92.0187C50.3024 92.0381 50.3116 92.0562 50.3247 92.0712C50.3378 92.0862 50.3544 92.0977 50.373 92.1047L50.4742 91.8519Z" fill="white"/>
<path d="M50.7902 104.467C50.7498 104.326 50.6776 104.195 50.579 104.086C50.4804 103.976 50.3581 103.89 50.2214 103.835C50.157 103.951 50.1161 104.077 50.1013 104.208C50.0947 104.273 50.1074 104.338 50.1378 104.395C50.1682 104.453 50.2149 104.5 50.272 104.531C50.4363 104.607 50.6133 104.486 50.7523 104.379V104.524L50.7902 104.467Z" fill="white"/>
<path d="M48.6918 104.525C48.6447 104.457 48.5753 104.408 48.4958 104.386C48.4165 104.378 48.3368 104.395 48.2683 104.436C48.0638 104.525 47.8524 104.597 47.6362 104.651L48.6033 105.119C48.6302 105.13 48.6541 105.147 48.6728 105.169C48.736 105.239 48.6728 105.359 48.6728 105.454C48.6728 105.548 48.8687 105.662 49.0141 105.669C50.0823 105.738 48.9951 104.853 48.6918 104.525Z" fill="white"/>
<path d="M52.7242 104.259C52.7292 104.149 52.709 104.04 52.6652 103.939C52.6213 103.838 52.5551 103.749 52.4714 103.677L52.1616 104.114C52.106 104.178 52.0689 104.257 52.0542 104.341C52.0546 104.382 52.0638 104.422 52.0812 104.459C52.0986 104.496 52.1237 104.529 52.1549 104.555C52.1861 104.582 52.2226 104.601 52.2619 104.612C52.3013 104.623 52.3425 104.626 52.3829 104.619C52.4638 104.603 52.5376 104.562 52.5942 104.502C52.6508 104.442 52.6874 104.366 52.6989 104.284L52.7242 104.259Z" fill="white"/>
<path d="M50.3098 102.736C50.3033 102.662 50.2679 102.593 50.2111 102.544C50.1544 102.496 50.0808 102.472 50.0064 102.477C49.9332 102.486 49.8636 102.514 49.8048 102.558C49.7459 102.602 49.6999 102.662 49.6714 102.73C49.6714 102.793 49.6714 102.875 49.6714 102.907C49.6923 102.916 49.7149 102.921 49.7377 102.921C49.7606 102.921 49.7832 102.916 49.8041 102.907L50.3287 102.768L50.3098 102.736Z" fill="white"/>
<path d="M51.9342 100.751C51.868 100.609 51.7758 100.48 51.6625 100.372C51.6048 100.32 51.533 100.288 51.4563 100.277C51.3797 100.267 51.3017 100.28 51.2327 100.315C51.1677 100.358 51.117 100.42 51.0873 100.492C51.0529 100.604 51.0633 100.726 51.1163 100.831C51.1694 100.935 51.2609 101.016 51.3717 101.055C51.4848 101.084 51.6049 101.068 51.7064 101.01C51.8079 100.952 51.8828 100.857 51.9153 100.745L51.9342 100.751Z" fill="white"/>
<path d="M46.0372 95.5556C45.8792 95.5556 45.7971 95.7389 45.7528 95.8969C45.7086 96.0549 45.6517 96.2256 45.5063 96.2698C45.4866 96.2793 45.465 96.2843 45.4431 96.2843C45.4212 96.2843 45.3996 96.2793 45.3799 96.2698C45.2914 96.2003 45.3799 96.0676 45.3799 95.9601C45.3892 95.8719 45.3892 95.7829 45.3799 95.6947C45.3795 95.5891 45.4105 95.4859 45.4691 95.398C45.5276 95.3102 45.611 95.2419 45.7086 95.2017C45.7649 95.2077 45.8182 95.2301 45.862 95.266C45.9058 95.3019 45.9382 95.3499 45.9551 95.4039C45.9725 95.4585 45.9734 95.517 45.9576 95.5721C45.9419 95.6272 45.9102 95.6765 45.8666 95.7136L46.0372 95.5556Z" fill="white"/>
<path d="M42.3586 96.8641C42.2006 96.8641 42.1185 97.0537 42.0742 97.2054C42.03 97.3571 41.9794 97.534 41.8277 97.5783C41.808 97.5878 41.7864 97.5928 41.7645 97.5928C41.7426 97.5928 41.721 97.5878 41.7013 97.5783C41.6191 97.5088 41.7013 97.376 41.7013 97.2686C41.7139 97.1806 41.7139 97.0912 41.7013 97.0031C41.7031 96.8973 41.7357 96.7942 41.7952 96.7066C41.8547 96.619 41.9385 96.5507 42.0363 96.5101C42.0926 96.5162 42.1459 96.5385 42.1897 96.5744C42.2335 96.6104 42.2659 96.6583 42.2828 96.7124C42.2987 96.7676 42.2981 96.8263 42.2813 96.8813C42.2645 96.9363 42.2321 96.9852 42.188 97.0221L42.3586 96.8641Z" fill="white"/>
<path d="M39.8179 95.4419C39.7162 95.3636 39.5968 95.3115 39.4703 95.2902H39.4071C39.3885 95.2982 39.372 95.3103 39.3589 95.3256C39.3458 95.341 39.3363 95.3591 39.3312 95.3786C39.3178 95.4257 39.3191 95.4758 39.3349 95.5221C39.3507 95.5684 39.3803 95.6088 39.4197 95.6378C39.4591 95.6671 39.5052 95.6859 39.5539 95.6925C39.6025 95.6992 39.652 95.6934 39.6978 95.6757C39.7244 95.6699 39.7495 95.6585 39.7714 95.6421C39.7932 95.6257 39.8112 95.6049 39.8242 95.5809C39.835 95.5564 39.8377 95.5292 39.8321 95.5031C39.8264 95.477 39.8126 95.4533 39.7926 95.4355V95.4798L39.8179 95.4419Z" fill="white"/>
<path d="M56.9021 102.704C56.8646 102.562 56.7941 102.431 56.6964 102.321C56.5986 102.211 56.4764 102.126 56.3395 102.072C56.2743 102.184 56.2334 102.309 56.2195 102.439C56.2129 102.503 56.2256 102.568 56.256 102.626C56.2863 102.683 56.333 102.73 56.3901 102.761C56.5544 102.837 56.7314 102.717 56.8705 102.609V102.755L56.9021 102.704Z" fill="white"/>
<path d="M55.7391 105.163C55.7731 105.135 55.7993 105.099 55.8151 105.058C55.831 105.017 55.836 104.973 55.8296 104.93C55.8232 104.887 55.8057 104.846 55.7788 104.811C55.7518 104.777 55.7164 104.75 55.6759 104.733C55.5954 104.787 55.5336 104.864 55.4989 104.954C55.4855 104.999 55.4868 105.048 55.5028 105.092C55.5187 105.136 55.5483 105.174 55.5874 105.201C55.6078 105.211 55.6304 105.216 55.6533 105.216C55.6761 105.216 55.6986 105.21 55.7189 105.2C55.7393 105.189 55.7568 105.174 55.7702 105.156C55.7836 105.137 55.7924 105.116 55.796 105.093L55.7391 105.163Z" fill="white"/>
<path d="M52.4273 101.63C52.4611 101.601 52.4871 101.565 52.5028 101.523C52.5185 101.482 52.5235 101.438 52.5171 101.394C52.5108 101.35 52.4934 101.309 52.4666 101.274C52.4399 101.239 52.4045 101.211 52.3641 101.193C52.2838 101.246 52.2236 101.324 52.1934 101.415C52.1778 101.46 52.1781 101.509 52.1942 101.554C52.2102 101.598 52.2412 101.636 52.2819 101.661C52.3024 101.671 52.3249 101.677 52.3478 101.677C52.3706 101.676 52.3931 101.671 52.4135 101.66C52.4338 101.65 52.4513 101.635 52.4647 101.616C52.4781 101.598 52.4869 101.576 52.4905 101.554L52.4273 101.63Z" fill="white"/>
<path d="M56.5799 104.133C56.6115 104.246 56.7884 104.24 56.8769 104.164C56.9654 104.088 57.0033 103.962 57.0792 103.873C57.122 103.83 57.1731 103.795 57.2295 103.771C57.286 103.747 57.3466 103.735 57.4078 103.734C57.444 103.733 57.4799 103.741 57.512 103.758C57.5442 103.774 57.5714 103.799 57.5911 103.829C57.6041 103.875 57.6041 103.923 57.5911 103.968C57.58 104.195 57.5056 104.414 57.3762 104.6C57.3086 104.701 57.2118 104.779 57.0989 104.823C56.9859 104.867 56.8621 104.875 56.7442 104.847C56.6654 104.824 56.5942 104.781 56.5377 104.721C56.4813 104.662 56.4417 104.588 56.423 104.509C56.4043 104.429 56.4073 104.345 56.4315 104.267C56.4558 104.189 56.5004 104.118 56.5609 104.063L56.5799 104.133Z" fill="white"/>
<path d="M44.9311 96.7122C44.9627 96.8259 45.1396 96.8259 45.2281 96.7438C45.3026 96.6542 45.3702 96.5591 45.4304 96.4594C45.4712 96.413 45.5219 96.3764 45.5788 96.3523C45.6357 96.3282 45.6973 96.3173 45.759 96.3203C45.7947 96.3175 45.8304 96.3243 45.8626 96.3398C45.8948 96.3554 45.9223 96.3792 45.9423 96.4088C45.9547 96.4543 45.9547 96.5023 45.9423 96.5478C45.9319 96.7746 45.8574 96.9938 45.7274 97.1799C45.6598 97.2806 45.563 97.3582 45.4501 97.4022C45.3371 97.4463 45.2133 97.4547 45.0954 97.4264C45.0177 97.4024 44.9474 97.3591 44.891 97.3005C44.8346 97.2419 44.794 97.17 44.773 97.0914C44.7551 97.012 44.7585 96.9292 44.7829 96.8515C44.8074 96.7737 44.8519 96.7039 44.9121 96.649L44.9311 96.7122Z" fill="white"/>
<path d="M45.5442 95.3092C45.5821 95.4166 45.7528 95.4166 45.8412 95.3092C45.9297 95.2017 45.9676 95.1132 46.0498 95.0248C46.0903 94.978 46.141 94.9411 46.198 94.917C46.255 94.8929 46.3167 94.8822 46.3785 94.8857C46.4133 94.8827 46.4482 94.8894 46.4794 94.905C46.5107 94.9206 46.537 94.9446 46.5555 94.9742C46.5678 95.0197 46.5678 95.0677 46.5555 95.1132C46.5378 95.3386 46.4639 95.5559 46.3406 95.7453C46.2688 95.8411 46.1712 95.9145 46.0594 95.957C45.9475 95.9995 45.8258 96.0094 45.7085 95.9855C45.6302 95.9626 45.5593 95.9196 45.5028 95.8609C45.4462 95.8021 45.406 95.7296 45.3862 95.6505C45.3687 95.5715 45.3718 95.4894 45.395 95.412C45.4182 95.3346 45.4609 95.2643 45.5189 95.208L45.5442 95.3092Z" fill="white"/>
<path d="M47.472 96.6806C47.5099 96.7944 47.6805 96.7944 47.769 96.6806C47.8575 96.5669 47.8954 96.4847 47.9776 96.3962C48.0181 96.3494 48.0688 96.3126 48.1258 96.2885C48.1828 96.2644 48.2445 96.2537 48.3063 96.2572C48.3411 96.2542 48.376 96.2609 48.4072 96.2765C48.4384 96.2921 48.4648 96.316 48.4833 96.3456C48.4956 96.3912 48.4956 96.4392 48.4833 96.4847C48.4675 96.7104 48.3934 96.9282 48.2684 97.1167C48.2008 97.2174 48.104 97.295 47.991 97.3391C47.878 97.3831 47.7542 97.3916 47.6363 97.3632C47.558 97.3404 47.4871 97.2974 47.4306 97.2386C47.374 97.1799 47.3338 97.1074 47.314 97.0283C47.2953 96.9494 47.2977 96.8669 47.321 96.7892C47.3443 96.7116 47.3876 96.6414 47.4467 96.5858L47.472 96.6806Z" fill="white"/>
<path d="M35.2544 107.912C35.2544 108.026 35.4629 108.02 35.5514 107.912C35.6399 107.805 35.6778 107.716 35.76 107.628C35.8007 107.583 35.8505 107.547 35.9061 107.523C35.9617 107.5 36.0218 107.488 36.0823 107.489C36.1181 107.485 36.1541 107.492 36.1864 107.508C36.2187 107.523 36.2461 107.547 36.2656 107.577C36.2815 107.625 36.2815 107.676 36.2656 107.723C36.2538 107.948 36.1818 108.167 36.0571 108.355C35.986 108.452 35.8889 108.526 35.7769 108.57C35.665 108.614 35.5429 108.625 35.425 108.601C35.3467 108.578 35.2758 108.536 35.2193 108.477C35.1627 108.418 35.1225 108.345 35.1027 108.266C35.0841 108.186 35.0865 108.103 35.1098 108.024C35.1331 107.946 35.1763 107.875 35.2354 107.818L35.2544 107.912Z" fill="white"/>
<path d="M54.1591 104.638L54.0074 104.518C53.9286 104.579 53.8747 104.667 53.8557 104.765C53.8557 104.859 53.9632 104.961 54.0453 104.904C54.1275 104.847 54.0896 104.847 54.1085 104.815C54.1275 104.784 54.197 104.6 54.2476 104.493L54.1591 104.638Z" fill="white"/>
<path d="M41.7204 103.716C41.6558 103.574 41.5633 103.447 41.4486 103.343C41.3904 103.29 41.3174 103.256 41.2394 103.246C41.1615 103.236 41.0823 103.25 41.0125 103.286C40.9481 103.328 40.8993 103.39 40.8734 103.463C40.8391 103.575 40.8495 103.696 40.9025 103.801C40.9555 103.906 41.047 103.986 41.1579 104.025C41.2709 104.052 41.3901 104.035 41.4903 103.976C41.5905 103.917 41.6639 103.821 41.6951 103.709L41.7204 103.716Z" fill="white"/>
<path d="M54.1591 99.8473C54.2074 99.8708 54.2488 99.9064 54.2792 99.9508C54.3096 99.9951 54.3279 100.047 54.3324 100.1C54.3369 100.154 54.3273 100.208 54.3047 100.256C54.2821 100.305 54.2471 100.347 54.2033 100.378C54.0811 100.368 53.9626 100.331 53.8557 100.271C53.8876 100.137 53.9689 100.019 54.0833 99.9421L54.1591 99.8473Z" fill="white"/>
<path opacity="0.5" d="M40.5636 102.104C40.5128 102.03 40.4457 101.97 40.3677 101.927C40.3312 101.902 40.2883 101.889 40.2444 101.889C40.2006 101.889 40.1577 101.902 40.1212 101.927C40.0138 102.028 40.077 102.211 40.0264 102.35C39.9758 102.489 39.8052 102.578 39.8052 102.723C39.81 102.758 39.8225 102.792 39.8417 102.822C39.8609 102.852 39.8865 102.878 39.9165 102.897C39.9465 102.916 39.9804 102.929 40.0157 102.934C40.0511 102.938 40.0871 102.936 40.1212 102.925C40.2599 102.874 40.3762 102.775 40.4499 102.647C40.5351 102.549 40.59 102.428 40.6079 102.299C40.617 102.235 40.603 102.169 40.5683 102.113C40.5336 102.058 40.4805 102.016 40.4183 101.996L40.5636 102.104Z" fill="white"/>
<path d="M47.731 98.5388C47.8495 98.2483 47.8926 97.9325 47.8561 97.6208C47.8197 97.3091 47.7048 97.0118 47.5224 96.7565C47.2108 96.7825 46.9099 96.8826 46.6449 97.0487C46.3799 97.2147 46.1585 97.4418 45.9992 97.7109C45.8561 97.987 45.8277 98.3083 45.9199 98.6053C46.0122 98.9023 46.2178 99.1509 46.4922 99.2973C47.0673 99.5312 47.8321 98.9054 47.5983 98.324L47.731 98.5388Z" fill="white"/>
<path d="M54.8038 98.5579C54.7846 98.5959 54.752 98.6254 54.7122 98.6406C54.6725 98.6558 54.6285 98.6556 54.5889 98.64C54.5502 98.621 54.5157 98.5945 54.4875 98.5619C54.4593 98.5293 54.4378 98.4914 54.4245 98.4504C54.4122 98.4006 54.4122 98.3485 54.4245 98.2987C54.4303 98.2702 54.442 98.2432 54.4588 98.2195C54.4756 98.1958 54.4973 98.1758 54.5223 98.1609C54.5473 98.1461 54.5751 98.1366 54.604 98.1331C54.6329 98.1296 54.6622 98.1322 54.69 98.1407C54.7439 98.1595 54.7888 98.1979 54.8157 98.2483C54.8426 98.2986 54.8496 98.3572 54.8354 98.4125C54.8179 98.4687 54.7809 98.5168 54.731 98.5481C54.6812 98.5794 54.6218 98.5919 54.5636 98.5832L54.8038 98.5579Z" fill="white"/>
<path d="M51.3717 98.5831C51.2263 98.6463 51.2073 98.8422 51.2136 99.0002C51.22 99.1582 51.2136 99.3415 51.1062 99.4363C51.0879 99.4469 51.0672 99.4524 51.0461 99.4524C51.0251 99.4524 51.0044 99.4469 50.9861 99.4363C50.8787 99.4047 50.9103 99.253 50.8976 99.1393C50.8754 99.0538 50.8436 98.9711 50.8028 98.8928C50.767 98.7933 50.7618 98.6855 50.7877 98.583C50.8136 98.4805 50.8695 98.3881 50.9482 98.3176C51.0034 98.305 51.0612 98.3088 51.1143 98.3285C51.1675 98.3483 51.2137 98.3831 51.2472 98.4288C51.2808 98.4745 51.3003 98.529 51.3033 98.5856C51.3063 98.6422 51.2927 98.6984 51.2642 98.7474L51.3717 98.5831Z" fill="white"/>
<path d="M46.7261 100.498L46.5618 100.429C46.5238 100.462 46.498 100.506 46.4888 100.556C46.4796 100.605 46.4876 100.656 46.5112 100.7C46.5246 100.721 46.542 100.739 46.5625 100.753C46.5829 100.767 46.6059 100.776 46.6301 100.781C46.6543 100.786 46.6791 100.785 46.7033 100.78C46.7274 100.775 46.7502 100.765 46.7704 100.751C46.79 100.736 46.8059 100.717 46.8169 100.695C46.8279 100.673 46.8336 100.649 46.8336 100.625C46.8336 100.6 46.8279 100.576 46.8169 100.554C46.8059 100.532 46.79 100.513 46.7704 100.498H46.7261Z" fill="white"/>
<path d="M50.1898 100.334C50.2116 100.358 50.2237 100.39 50.2237 100.422C50.2237 100.455 50.2116 100.487 50.1898 100.511C50.1325 100.55 50.0631 100.568 49.9939 100.562C49.9393 100.559 49.8856 100.546 49.8359 100.524C49.7891 100.495 49.7535 100.451 49.7351 100.399C49.7167 100.347 49.7166 100.291 49.7348 100.239C49.7541 100.188 49.7864 100.143 49.8286 100.109C49.8707 100.075 49.9212 100.052 49.975 100.043C50.0297 100.034 50.0859 100.045 50.133 100.075C50.1494 100.094 50.1585 100.119 50.1585 100.144C50.1585 100.17 50.1494 100.194 50.133 100.214L50.1898 100.334Z" fill="white"/>
<path d="M49.3176 105.485C49.5971 105.344 49.8361 105.135 50.0119 104.876C50.1878 104.617 50.2947 104.318 50.3226 104.006C50.0734 103.818 49.7814 103.693 49.4726 103.645C49.1639 103.596 48.8479 103.625 48.5528 103.728C48.4087 103.784 48.2771 103.868 48.1654 103.975C48.0537 104.081 47.9642 104.209 47.902 104.351C47.8397 104.492 47.806 104.645 47.8028 104.799C47.7995 104.954 47.8267 105.107 47.8829 105.251C47.9577 105.381 48.0654 105.489 48.1953 105.564C48.3251 105.639 48.4724 105.679 48.6224 105.679C48.7723 105.679 48.9196 105.639 49.0495 105.564C49.1793 105.489 49.287 105.381 49.3619 105.251L49.3176 105.485Z" fill="white"/>
<path d="M53.8872 103.716C53.8051 103.551 53.5206 103.652 53.489 103.829C53.4864 103.921 53.5024 104.011 53.5361 104.096C53.5698 104.181 53.6205 104.258 53.685 104.322C53.7935 104.26 53.8808 104.166 53.936 104.053C53.9911 103.941 54.0115 103.814 53.9947 103.69L53.8872 103.716Z" fill="white"/>
<path d="M53.3564 97.1105L53.1857 97.041C53.1477 97.074 53.1224 97.1192 53.1144 97.1689C53.1063 97.2186 53.1159 97.2695 53.1415 97.3128C53.1549 97.3335 53.1723 97.3513 53.1927 97.3651C53.2131 97.3789 53.2361 97.3885 53.2603 97.3932C53.2845 97.3979 53.3094 97.3977 53.3335 97.3926C53.3576 97.3874 53.3805 97.3775 53.4006 97.3634C53.4203 97.3486 53.4362 97.3296 53.4472 97.3076C53.4581 97.2857 53.4638 97.2615 53.4638 97.2369C53.4638 97.2124 53.4581 97.1882 53.4472 97.1663C53.4362 97.1443 53.4203 97.1253 53.4006 97.1105H53.3564Z" fill="white"/>
<path d="M51.5865 99.923C51.0804 99.4921 50.481 99.1848 49.8357 99.0255C49.7315 99.0039 49.6239 99.0039 49.5197 99.0255C49.421 99.0544 49.3308 99.1069 49.2571 99.1785C49.1833 99.2501 49.128 99.3386 49.0962 99.4363C49.0137 99.676 49.0051 99.9349 49.0716 100.179C49.1381 100.424 49.2766 100.643 49.4691 100.808C49.664 100.969 49.8955 101.081 50.1433 101.133C50.3912 101.185 50.6479 101.175 50.8912 101.105C51.0268 101.076 51.1553 101.02 51.2693 100.941C51.3832 100.862 51.4803 100.761 51.5549 100.644C51.6269 100.525 51.6549 100.384 51.6341 100.247C51.6134 100.109 51.545 99.9837 51.4411 99.8914C51.4202 99.8974 51.4012 99.9087 51.3859 99.9241C51.3707 99.9396 51.3596 99.9587 51.3539 99.9797C51.3482 100.001 51.348 100.023 51.3533 100.044C51.3586 100.065 51.3693 100.084 51.3842 100.1L51.5865 99.923Z" fill="white"/>
<path d="M44.0904 107.849C44.0112 107.54 43.8531 107.257 43.6315 107.027C43.4098 106.798 43.1324 106.63 42.8263 106.541C42.5955 106.749 42.4177 107.01 42.3078 107.302C42.1979 107.593 42.159 107.906 42.1943 108.215C42.244 108.523 42.4134 108.799 42.6656 108.983C42.9178 109.166 43.2323 109.242 43.5405 109.195C44.1726 109.037 44.3812 108.076 43.8502 107.754L44.0904 107.849Z" fill="white"/>
<path d="M40.2919 96.6808C40.254 96.5388 40.1833 96.4078 40.0856 96.298C39.988 96.1883 39.866 96.1029 39.7294 96.0487C39.665 96.1638 39.6242 96.2906 39.6093 96.4216C39.603 96.4854 39.6151 96.5497 39.6442 96.6069C39.6733 96.664 39.7183 96.7116 39.7736 96.744C39.938 96.8198 40.1213 96.6997 40.2603 96.5923V96.7376L40.2919 96.6808Z" fill="white"/>
<path d="M38.1935 96.763C38.1452 96.6991 38.0793 96.6508 38.0039 96.6239C37.9241 96.62 37.8449 96.6398 37.7763 96.6808C37.5719 96.7696 37.3605 96.8415 37.1443 96.8957L38.105 97.3634C38.1338 97.3743 38.1597 97.3916 38.1808 97.414C38.2441 97.4835 38.1808 97.6036 38.1808 97.6984C38.1808 97.7932 38.3768 97.907 38.5158 97.9133C39.5903 97.9512 38.4906 97.0663 38.1935 96.763Z" fill="white"/>
<path d="M50.822 98.1346L50.5438 97.9829C50.4945 98.0757 50.4753 98.1816 50.4889 98.2858C50.5025 98.39 50.5482 98.4874 50.6197 98.5644C50.7777 98.6971 51.0874 98.6213 51.1064 98.4127C51.1253 98.2041 51.1064 98.0777 51.2138 98.0904L50.822 98.1346Z" fill="white"/>
<path d="M41.9478 99.7903C42.0315 99.8213 42.1055 99.8735 42.1627 99.942C42.0575 99.9758 41.946 99.9854 41.8366 99.9701C41.7271 99.9548 41.6226 99.9149 41.5307 99.8535C41.4232 99.7966 41.2968 99.7081 41.3095 99.5817C41.3221 99.4553 41.3916 99.43 41.4296 99.3478C41.4675 99.2657 41.4675 98.9433 41.6381 98.8864C41.6866 98.8767 41.737 98.8839 41.7807 98.9069C41.8245 98.93 41.8589 98.9674 41.8783 99.0129C41.9157 99.1049 41.9309 99.2046 41.9226 99.3036V99.9356L41.9478 99.7903Z" fill="white"/>
<path d="M40.7786 103.014C40.7028 102.849 40.4184 102.951 40.3868 103.128C40.3561 103.189 40.344 103.258 40.352 103.327C40.36 103.395 40.3878 103.46 40.4319 103.512C40.476 103.565 40.5346 103.604 40.6004 103.624C40.6662 103.644 40.7364 103.645 40.8025 103.625C40.8686 103.606 40.9276 103.568 40.9724 103.516C41.0171 103.463 41.0457 103.399 41.0546 103.331C41.0634 103.263 41.0522 103.193 41.0223 103.132C40.9924 103.07 40.945 103.018 40.8861 102.982L40.7786 103.014Z" fill="white"/>
<path opacity="0.5" d="M38.3324 99.98C38.3401 100.023 38.3314 100.067 38.3079 100.103C38.2844 100.139 38.248 100.165 38.206 100.176C38.1216 100.189 38.0355 100.169 37.9658 100.119C37.9211 100.093 37.8841 100.056 37.8584 100.012C37.847 99.9855 37.8408 99.9574 37.8404 99.9289C37.8399 99.9004 37.8451 99.872 37.8557 99.8456C37.8663 99.8191 37.882 99.795 37.902 99.7747C37.922 99.7544 37.9459 99.7382 37.9722 99.7272C37.9995 99.7171 38.0286 99.7126 38.0578 99.7138C38.0869 99.7151 38.1156 99.722 38.142 99.7344C38.1684 99.7467 38.1922 99.7642 38.2118 99.7857C38.2315 99.8072 38.2467 99.8325 38.2566 99.8599C38.2758 99.9149 38.2749 99.9749 38.254 100.029C38.2332 100.084 38.1938 100.129 38.1428 100.157L38.3324 99.98Z" fill="white"/>
<path d="M39.1227 99.1395C39.1567 99.1119 39.1829 99.0759 39.1987 99.035C39.2146 98.9942 39.2196 98.95 39.2132 98.9067C39.2068 98.8633 39.1893 98.8224 39.1624 98.7879C39.1354 98.7533 39.1 98.7264 39.0595 98.7097C38.981 98.7611 38.9211 98.8365 38.8888 98.9246C38.8749 98.9707 38.876 99.02 38.8919 99.0654C38.9078 99.1108 38.9377 99.1501 38.9773 99.1774C38.9982 99.1877 39.0213 99.1928 39.0445 99.1923C39.0678 99.1918 39.0906 99.1858 39.1111 99.1746C39.1315 99.1635 39.149 99.1476 39.162 99.1283C39.175 99.1089 39.1832 99.0868 39.1859 99.0637L39.1227 99.1395Z" fill="white"/>
<path d="M42.2259 96.4722C42.2316 96.363 42.2125 96.2538 42.1697 96.153C42.127 96.0523 42.0619 95.9626 41.9794 95.8907L41.6634 96.3269C41.6114 96.394 41.5747 96.4716 41.5559 96.5544C41.5563 96.5953 41.5655 96.6355 41.5829 96.6725C41.6003 96.7095 41.6254 96.7423 41.6566 96.7687C41.6878 96.7951 41.7243 96.8144 41.7636 96.8254C41.803 96.8365 41.8442 96.8389 41.8846 96.8325C41.9659 96.8172 42.0402 96.7765 42.097 96.7163C42.1538 96.6562 42.19 96.5796 42.2006 96.4975L42.2259 96.4722Z" fill="white"/>
<path opacity="0.5" d="M38.5664 102.527C38.5811 102.589 38.5783 102.654 38.5582 102.714C38.5381 102.774 38.5015 102.828 38.4527 102.869C38.4029 102.907 38.3431 102.931 38.2803 102.936C38.2176 102.942 38.1545 102.929 38.0987 102.9C38.0229 102.862 37.9597 102.755 38.0166 102.692C38.039 102.663 38.0701 102.643 38.105 102.635L38.5538 102.464V102.546L38.5664 102.527Z" fill="white"/>
<path opacity="0.5" d="M36.6954 104.177C36.5374 104.177 36.4553 104.367 36.411 104.518C36.3668 104.67 36.3162 104.847 36.1645 104.898C36.1448 104.907 36.1232 104.912 36.1013 104.912C36.0794 104.912 36.0578 104.907 36.0381 104.898C35.9496 104.828 36.0381 104.695 36.0381 104.581C36.0474 104.493 36.0474 104.404 36.0381 104.316C36.0368 104.21 36.0683 104.107 36.1283 104.019C36.1883 103.932 36.2738 103.866 36.3731 103.829C36.4292 103.836 36.4821 103.859 36.5258 103.895C36.5694 103.93 36.602 103.978 36.6196 104.032C36.6349 104.086 36.6342 104.144 36.6173 104.197C36.6005 104.251 36.5683 104.299 36.5248 104.335L36.6954 104.177Z" fill="white"/>
<path opacity="0.5" d="M47.099 94.3106C46.941 94.3106 46.8588 94.4939 46.8146 94.6456C46.7703 94.7973 46.7135 94.9806 46.5681 95.0248C46.5484 95.0343 46.5268 95.0393 46.5049 95.0393C46.483 95.0393 46.4614 95.0343 46.4417 95.0248C46.3532 94.9553 46.4417 94.8226 46.4417 94.7151C46.451 94.6269 46.451 94.5379 46.4417 94.4497C46.4404 94.3439 46.4711 94.2403 46.5297 94.1523C46.5884 94.0643 46.6722 93.9961 46.7703 93.9567C46.8267 93.9627 46.88 93.9851 46.9238 94.021C46.9676 94.0569 46.9999 94.1049 47.0168 94.1589C47.0342 94.2135 47.0351 94.272 47.0194 94.3272C47.0037 94.3823 46.972 94.4315 46.9283 94.4686L47.099 94.3106Z" fill="white"/>
<path opacity="0.5" d="M35.6717 102.976L35.539 102.856C35.4925 102.875 35.4537 102.909 35.4286 102.952C35.4034 102.996 35.3933 103.046 35.3999 103.096C35.4058 103.12 35.4164 103.142 35.4311 103.162C35.4458 103.182 35.4643 103.198 35.4855 103.211C35.5068 103.223 35.5303 103.231 35.5546 103.234C35.579 103.237 35.6038 103.236 35.6274 103.229C35.6499 103.22 35.67 103.206 35.6863 103.188C35.7025 103.17 35.7144 103.149 35.7212 103.126C35.7279 103.103 35.7292 103.078 35.725 103.054C35.7208 103.031 35.7112 103.008 35.697 102.989L35.6717 102.976Z" fill="white"/>
<path d="M39.9505 98.1092C39.9884 98.223 40.1591 98.2167 40.2476 98.1092C40.3361 98.0018 40.374 97.9133 40.4562 97.8248C40.4975 97.7791 40.5484 97.743 40.6051 97.719C40.6619 97.6949 40.7232 97.6836 40.7848 97.6857C40.8196 97.6828 40.8545 97.6895 40.8858 97.7051C40.917 97.7207 40.9433 97.7446 40.9618 97.7742C40.9744 97.8219 40.9744 97.872 40.9618 97.9196C40.9441 98.1449 40.8702 98.3622 40.7469 98.5517C40.6759 98.6486 40.5787 98.7232 40.4667 98.7669C40.3548 98.8105 40.2327 98.8214 40.1148 98.7982C40.0366 98.7753 39.9656 98.7323 39.9091 98.6735C39.8526 98.6148 39.8124 98.5423 39.7925 98.4632C39.7757 98.3832 39.7791 98.3004 39.8022 98.222C39.8254 98.1437 39.8677 98.0724 39.9252 98.0144L39.9505 98.1092Z" fill="white"/>
<path d="M39.8178 94.9488C39.8098 94.8751 39.774 94.8072 39.7176 94.759C39.6612 94.7108 39.5885 94.686 39.5144 94.6897C39.441 94.6978 39.3712 94.7256 39.3122 94.7701C39.2533 94.8146 39.2074 94.8741 39.1795 94.9425C39.1795 94.9994 39.1415 95.0879 39.1795 95.1195C39.2202 95.135 39.2652 95.135 39.3059 95.1195L39.8368 94.9804L39.8178 94.9488Z" fill="white"/>
<path d="M43.2561 102.35C43.2436 102.423 43.2145 102.492 43.171 102.552C43.1275 102.611 43.0709 102.66 43.0055 102.694C42.94 102.729 42.8676 102.747 42.7938 102.749C42.72 102.751 42.6468 102.735 42.5798 102.704C42.6111 102.469 42.7124 102.249 42.8706 102.072C42.9097 102.027 42.9582 101.99 43.0128 101.965C43.0673 101.94 43.1266 101.927 43.1866 101.927C43.2466 101.927 43.3059 101.94 43.3604 101.965C43.415 101.99 43.4635 102.027 43.5026 102.072L43.4394 102.477L43.2561 102.35Z" fill="white"/>
<path opacity="0.5" d="M37.5424 98.615L37.397 98.4949C37.3195 98.5544 37.2658 98.6395 37.2454 98.7351C37.2454 98.8362 37.3528 98.9373 37.4287 98.8804C37.4585 98.8583 37.4806 98.8274 37.4919 98.792L37.6309 98.4696L37.5424 98.615Z" fill="white"/>
<path d="M54.0515 101.301C53.9897 101.158 53.8969 101.031 53.7798 100.928C53.7221 100.877 53.6503 100.844 53.5736 100.834C53.497 100.823 53.419 100.837 53.35 100.871C53.2839 100.912 53.2345 100.974 53.2109 101.048C53.1905 101.103 53.1816 101.162 53.1847 101.221C53.1878 101.279 53.203 101.337 53.2292 101.389C53.2553 101.442 53.292 101.489 53.337 101.526C53.3819 101.564 53.4341 101.592 53.4904 101.609C53.5467 101.626 53.6058 101.631 53.6641 101.625C53.7225 101.618 53.7788 101.599 53.8296 101.569C53.8804 101.54 53.9246 101.5 53.9595 101.453C53.9945 101.406 54.0193 101.352 54.0326 101.295L54.0515 101.301Z" fill="white"/>
<path d="M45.936 105.713L45.6579 105.568C45.6008 105.624 45.5575 105.694 45.5315 105.77C45.5871 105.825 45.662 105.855 45.7401 105.855C45.8181 105.855 45.8931 105.825 45.9486 105.77L45.936 105.713Z" fill="white"/>
<path d="M44.8427 103.336L44.5583 103.191C44.5052 103.25 44.4644 103.318 44.4382 103.393C44.4946 103.446 44.5692 103.476 44.6468 103.476C44.7244 103.476 44.799 103.446 44.8554 103.393L44.8427 103.336Z" fill="white"/>
<path d="M48.7108 95.5809C48.7108 95.4608 48.5401 95.4166 48.4327 95.4672C48.3358 95.5332 48.2429 95.605 48.1546 95.682C48.1017 95.7135 48.0425 95.7326 47.9812 95.7381C47.9199 95.7436 47.8582 95.7352 47.8006 95.7136C47.7658 95.7064 47.7337 95.6896 47.708 95.665C47.6823 95.6404 47.664 95.6091 47.6553 95.5746C47.6403 95.5295 47.6403 95.4807 47.6553 95.4355C47.7333 95.2148 47.8712 95.02 48.0534 94.873C48.1426 94.8048 48.2494 94.7632 48.3612 94.7531C48.4731 94.7431 48.5855 94.7649 48.6855 94.8161C48.7542 94.8609 48.8097 94.9231 48.8464 94.9964C48.883 95.0697 48.8995 95.1515 48.8941 95.2333C48.887 95.3142 48.8595 95.392 48.8142 95.4595C48.7689 95.5269 48.7072 95.5817 48.6349 95.6188L48.7108 95.5809Z" fill="white"/>
<path d="M51.0747 101.421C51.1024 101.505 51.1477 101.583 51.2074 101.649C51.2365 101.682 51.275 101.706 51.3178 101.717C51.3606 101.728 51.4058 101.726 51.4476 101.712C51.5866 101.649 51.574 101.453 51.6625 101.332C51.751 101.212 51.9406 101.181 51.9848 101.042C52.0291 100.903 51.8837 100.764 51.7383 100.757C51.5926 100.765 51.4542 100.823 51.3464 100.922C51.234 100.99 51.1456 101.092 51.0936 101.212C51.066 101.271 51.0604 101.338 51.0778 101.401C51.0952 101.463 51.1344 101.518 51.1884 101.554L51.0747 101.421Z" fill="white"/>
<path d="M45.0703 98.1785C45.5705 98.3838 46.1109 98.4724 46.6504 98.4377C46.7379 98.4384 46.8245 98.4189 46.9032 98.3808C46.9737 98.335 47.0315 98.2722 47.0713 98.1982C47.1111 98.1242 47.1315 98.0413 47.1308 97.9573C47.1354 97.7503 47.0776 97.5468 46.9648 97.3732C46.8521 97.1995 46.6897 97.0639 46.4987 96.9839C46.307 96.9056 46.0989 96.8755 45.8928 96.8965C45.6867 96.9174 45.4889 96.9887 45.3168 97.104C45.219 97.1607 45.1334 97.2363 45.065 97.3264C44.9967 97.4164 44.9469 97.5192 44.9186 97.6286C44.8936 97.7384 44.9069 97.8535 44.9563 97.9547C45.0057 98.0559 45.0884 98.1371 45.1904 98.1848C45.2047 98.175 45.2164 98.1617 45.2245 98.1463C45.2326 98.1309 45.2369 98.1138 45.2369 98.0963C45.2369 98.0789 45.2326 98.0618 45.2245 98.0464C45.2164 98.031 45.2047 98.0177 45.1904 98.0079L45.0703 98.1785Z" fill="white"/>
<path d="M47.63 95.2207C47.6551 95.1426 47.6551 95.0586 47.63 94.9805C47.5941 94.9096 47.5365 94.852 47.4656 94.8162C47.2933 94.687 47.1307 94.5455 46.979 94.3927L47.0548 95.4609C47.0582 95.4903 47.0582 95.52 47.0548 95.5494C47.0232 95.6442 46.8905 95.6442 46.8083 95.7074C46.7261 95.7706 46.7325 95.9728 46.8083 96.1056C47.2697 97.0347 47.4909 95.6442 47.63 95.2207Z" fill="white"/>
<path d="M45.0829 98.027L44.9565 97.8943C44.9087 97.9087 44.8675 97.9393 44.8398 97.9808C44.8121 98.0223 44.7998 98.0722 44.8048 98.1218C44.8086 98.1461 44.8173 98.1693 44.8302 98.1901C44.8432 98.211 44.8602 98.229 44.8802 98.2431C44.9002 98.2573 44.9229 98.2672 44.9469 98.2725C44.9708 98.2777 44.9956 98.278 45.0197 98.2735C45.0432 98.266 45.0647 98.2531 45.0823 98.2359C45.0999 98.2186 45.1133 98.1975 45.1213 98.1741C45.1292 98.1508 45.1317 98.1259 45.1283 98.1014C45.1249 98.077 45.1159 98.0537 45.1019 98.0333L45.0829 98.027Z" fill="white"/>
<path d="M45.9235 95.2585C45.9545 95.2388 45.9811 95.2129 46.0018 95.1826C46.0225 95.1522 46.0368 95.118 46.0439 95.082C46.051 95.0459 46.0507 95.0088 46.043 94.9729C46.0354 94.937 46.0205 94.903 45.9994 94.873C45.9568 94.8125 45.8981 94.765 45.83 94.736C45.7619 94.707 45.687 94.6975 45.6138 94.7086C45.5506 94.7086 45.4748 94.7466 45.4685 94.8098C45.4621 94.873 45.5001 94.8919 45.5317 94.9235L45.9109 95.3154L45.9235 95.2585Z" fill="white"/>
<path d="M44.9375 96.9525C45.0445 96.847 45.1245 96.7172 45.1707 96.5742C45.2169 96.4311 45.228 96.2791 45.203 96.1309C45.0728 96.131 44.944 96.1568 44.8237 96.2067C44.764 96.233 44.7135 96.2766 44.6786 96.3317C44.6437 96.3869 44.626 96.4512 44.6278 96.5164C44.6278 96.6934 44.8364 96.7882 45.0007 96.8577L44.8617 96.9146L44.9375 96.9525Z" fill="white"/>
<path d="M43.8061 97.6161C43.8312 97.7006 43.8312 97.7907 43.8061 97.8752C43.7187 97.7966 43.6513 97.6982 43.6095 97.5883C43.5677 97.4783 43.5528 97.36 43.5659 97.2432C43.5659 97.1168 43.5659 96.9588 43.6923 96.9082C43.8187 96.8576 43.8629 96.9082 43.9514 96.9082C44.0399 96.9082 44.3243 96.7439 44.4508 96.8576C44.4821 96.896 44.4992 96.944 44.4992 96.9935C44.4992 97.043 44.4821 97.091 44.4508 97.1294C44.3885 97.2082 44.3083 97.2711 44.2169 97.3127L43.6544 97.6351L43.8061 97.6161Z" fill="white"/>
<path d="M46.8272 96.2066C46.9241 96.1542 47.0082 96.0812 47.0737 95.9927C47.1393 95.9043 47.1846 95.8025 47.2065 95.6946L46.6692 95.6441C46.586 95.6253 46.4996 95.6253 46.4164 95.6441C46.3821 95.6656 46.3527 95.6941 46.33 95.7277C46.3074 95.7612 46.292 95.7992 46.2848 95.839C46.2777 95.8789 46.279 95.9198 46.2886 95.9592C46.2981 95.9985 46.3159 96.0354 46.3406 96.0675C46.3949 96.1298 46.4674 96.1736 46.5478 96.1929C46.6282 96.2122 46.7126 96.2059 46.7893 96.175L46.8272 96.2066Z" fill="white"/>
<path d="M44.2739 95.0439C44.1918 95.1324 44.2739 95.2777 44.394 95.3157C44.5112 95.3349 44.6294 95.3476 44.748 95.3536C44.8077 95.3677 44.8638 95.3941 44.9128 95.4311C44.9617 95.4681 45.0025 95.5149 45.0324 95.5685C45.0495 95.5994 45.0585 95.6342 45.0585 95.6696C45.0585 95.705 45.0495 95.7398 45.0324 95.7707C45.003 95.8083 44.9635 95.8368 44.9186 95.8529C44.7101 95.9606 44.4767 96.0107 44.2423 95.9983C44.1264 95.9843 44.0166 95.9386 43.9251 95.866C43.8337 95.7935 43.7641 95.6971 43.724 95.5874C43.7045 95.5078 43.7065 95.4244 43.7298 95.3459C43.7532 95.2673 43.797 95.1963 43.8569 95.1403C43.9167 95.0843 43.9905 95.0453 44.0704 95.0272C44.1504 95.0091 44.2337 95.0127 44.3118 95.0375L44.2739 95.0439Z" fill="white"/>
<path d="M48.0281 101.718C48.1189 101.593 48.1834 101.451 48.2177 101.301C48.2344 101.225 48.2277 101.145 48.1983 101.073C48.169 101.001 48.1184 100.939 48.0534 100.896C47.9837 100.859 47.9038 100.846 47.8258 100.859C47.7122 100.886 47.6132 100.955 47.5487 101.052C47.4842 101.15 47.459 101.268 47.4782 101.383C47.5107 101.496 47.5854 101.591 47.6866 101.65C47.7879 101.709 47.9079 101.727 48.0218 101.699L48.0281 101.718Z" fill="white"/>
<path d="M50.2594 99.0637C50.3608 98.9584 50.4368 98.8314 50.4817 98.6923C50.5266 98.5532 50.5392 98.4057 50.5185 98.261C50.3885 98.263 50.26 98.2887 50.1393 98.3368C50.0794 98.3636 50.0284 98.407 49.9925 98.4619C49.9567 98.5168 49.9374 98.5809 49.937 98.6465C49.937 98.8235 50.1456 98.9246 50.3099 98.9878L50.1772 99.051L50.2594 99.0637Z" fill="white"/>
<path d="M43.2563 97.6668C43.0983 97.6668 42.9972 97.8374 42.9466 97.9828C42.8961 98.1281 42.8265 98.3051 42.6748 98.343C42.6556 98.3541 42.6338 98.36 42.6116 98.36C42.5894 98.36 42.5677 98.3541 42.5484 98.343C42.4663 98.2735 42.5484 98.1408 42.5864 98.0333C42.596 97.9472 42.596 97.8603 42.5864 97.7742C42.5913 97.668 42.6284 97.5658 42.6927 97.4811C42.7571 97.3965 42.8456 97.3334 42.9466 97.3002C43.0021 97.3121 43.0533 97.339 43.0946 97.378C43.1358 97.417 43.1655 97.4666 43.1805 97.5214C43.1929 97.5775 43.1888 97.6361 43.1686 97.69C43.1484 97.7438 43.113 97.7906 43.0667 97.8248L43.2563 97.6668Z" fill="white"/>
<path d="M52.6233 105.397H52.4463C52.4161 105.436 52.3997 105.484 52.3997 105.533C52.3997 105.582 52.4161 105.63 52.4463 105.669C52.4634 105.687 52.484 105.701 52.5068 105.711C52.5297 105.72 52.5542 105.726 52.579 105.726C52.6039 105.726 52.6284 105.72 52.6512 105.711C52.6741 105.701 52.6947 105.687 52.7118 105.669C52.7259 105.649 52.7352 105.626 52.739 105.602C52.7427 105.578 52.7409 105.553 52.7335 105.53C52.7262 105.506 52.7135 105.485 52.6966 105.468C52.6797 105.45 52.6589 105.437 52.6359 105.428L52.6233 105.397Z" fill="white"/>
<path d="M47.2064 97.6351L47.238 97.4518C47.1448 97.4139 47.0404 97.4139 46.9472 97.4518C46.8651 97.496 46.8335 97.6414 46.9472 97.6857C46.982 97.6982 47.02 97.6982 47.0547 97.6857L47.4023 97.6477L47.2064 97.6351Z" fill="white"/>
<path style="mix-blend-mode:multiply" opacity="0.5" d="M45.8224 138.927C60.0575 138.927 71.5974 136.357 71.5974 133.188C71.5974 130.018 60.0575 127.449 45.8224 127.449C31.5872 127.449 20.0474 130.018 20.0474 133.188C20.0474 136.357 31.5872 138.927 45.8224 138.927Z" fill="url(#paint0_radial_1198_5947)"/>
<path d="M105.817 0.760742L107.662 1.5508L105.817 22.1872L104.236 22.8888L95.552 23.761L94.8947 27.389L88.5742 22.1872L105.817 0.760742Z" fill="url(#paint1_linear_1198_5947)"/>
<path d="M40.7785 110.908C40.0263 115.295 36.6891 125.445 33.6995 124.365C33.0675 124.131 32.3785 123.315 31.7022 122.108C29.6607 118.455 27.6508 111.256 26.6458 106.389C26.1023 103.741 25.8558 101.775 26.077 101.459C27.4106 99.4807 40.0769 108.045 40.829 108.993C40.9681 109.176 40.9365 109.884 40.7785 110.908Z" fill="url(#paint2_linear_1198_5947)"/>
<path d="M60.8146 104.98C60.7704 105.384 60.7135 105.807 60.6566 106.244C59.7591 112.905 57.9072 122.677 55.9225 126.254C55.4485 127.108 54.9618 127.601 54.4815 127.613C54.3507 127.616 54.2204 127.596 54.0959 127.556C53.5432 127.341 53.057 126.983 52.6864 126.52C49.6716 123.132 46.2648 112.849 46.1447 109.777C46.1084 109.51 46.1478 109.238 46.2585 108.993C47.9777 106.661 60.4354 98.6969 61.1306 99.645C61.3139 99.9231 61.1749 102.022 60.8146 104.98Z" fill="url(#paint3_linear_1198_5947)"/>
<path d="M26.0709 101.459C24.6677 103.292 36.0952 111.572 40.9114 109.417C40.9114 109.404 27.9291 99.0257 26.0709 101.459Z" fill="url(#paint4_linear_1198_5947)"/>
<path d="M46.1447 109.777C45.7655 110.706 58.9564 108.57 61.1306 99.6641C61.1306 99.6452 49.7221 100.979 46.1447 109.777Z" fill="url(#paint5_linear_1198_5947)"/>
<path style="mix-blend-mode:multiply" opacity="0.3" d="M31.0641 109.157C30.432 109.947 31.2158 120.212 33.6808 124.365C33.0487 124.131 32.3598 123.315 31.6835 122.108C31.2853 120.313 30.6912 117.646 30.1286 114.985C29.381 111.968 28.2061 109.074 26.6397 106.389C26.0962 103.741 25.8497 101.775 26.0709 101.459C27.4045 99.4807 40.0708 108.045 40.8229 108.993C40.9683 109.176 40.9367 109.884 40.7597 110.889C40.7787 110.908 31.7088 108.374 31.0641 109.157Z" fill="url(#paint6_linear_1198_5947)"/>
<path d="M53.3816 112.88C52.8443 113.044 52.7179 117.342 53.6154 117.583C54.5129 117.823 54.6267 112.501 53.3816 112.88Z" fill="white"/>
<path style="mix-blend-mode:multiply" opacity="0.3" d="M60.8145 104.98C60.8145 104.98 53.6028 107.116 51.9658 110.535C50.3288 113.955 50.9229 122.083 52.7179 126.514C49.7031 123.126 46.2963 112.842 46.1762 109.771C46.1399 109.504 46.1793 109.232 46.29 108.987C48.0092 106.655 60.4669 98.6907 61.1621 99.6388C61.3138 99.9232 61.1748 102.022 60.8145 104.98Z" fill="url(#paint7_linear_1198_5947)"/>
<path d="M29.6357 71.3482C29.6357 75.1405 29.0858 80.6646 27.354 85.1142C24.4971 92.4776 20.1991 101.756 20.0664 102.047C17.4434 103.646 14.3021 103.557 12.2985 103.267C11.6209 103.173 10.9512 103.03 10.2949 102.837C11.1845 96.5849 13.0485 90.5109 15.819 84.8361C18.0105 80.3919 20.6447 76.1801 23.6817 72.2647V72.2204C23.6817 72.1762 23.7449 72.1382 23.7765 72.094C23.7954 72.0724 23.8124 72.0491 23.8271 72.0245C23.8474 72.0089 23.8646 71.9896 23.8777 71.9676C23.8993 71.9369 23.9225 71.9074 23.9472 71.8791C26.5449 68.5798 28.656 66.5825 29.0984 66.8227C29.4018 66.9554 29.642 68.7568 29.6357 71.3482Z" fill="url(#paint8_linear_1198_5947)"/>
<path d="M10.3264 102.514C10.3264 102.514 13.7079 96.9334 17.1968 97.6603C20.6857 98.3871 20.06 102.085 20.06 102.085C18.622 103.014 16.9623 103.544 15.2515 103.62C13.5408 103.695 11.8408 103.314 10.3264 102.514Z" fill="url(#paint9_linear_1198_5947)"/>
<path style="mix-blend-mode:multiply" opacity="0.3" d="M29.6356 71.3483C29.6356 75.1406 29.0857 80.6647 27.3539 85.1143C24.4971 92.4777 20.1991 101.756 20.0664 102.047L12.2922 103.273C11.6145 103.18 10.9448 103.036 10.2886 102.843C11.1782 96.5913 13.0422 90.5173 15.8127 84.8425C18.0041 80.3983 20.6384 76.1865 23.6754 72.2711C22.209 74.2051 16.0908 82.624 14.4348 89.7725C12.5387 97.9007 20.1233 94.772 23.2203 89.7725C26.3174 84.773 29.5408 71.3483 29.5408 71.3483H29.6356Z" fill="url(#paint10_linear_1198_5947)"/>
<path d="M21.185 84.3493C20.553 84.1154 23.7512 76.9101 24.7371 76.8406C25.7231 76.771 21.7033 84.5452 21.185 84.3493Z" fill="white"/>
<path d="M20.8564 85.1143C20.3698 84.8552 19.9147 86.2077 20.3571 86.3784C20.7996 86.5491 21.4063 85.3861 20.8564 85.1143Z" fill="white"/>
<path d="M16.0717 99.3418C14.264 99.0447 11.6473 100.732 10.8257 102.249C10.004 103.766 9.56158 112.507 11.641 119.725C11.641 119.725 14.5548 120.515 16.7353 119.725C18.9159 118.935 20.4392 112.564 20.5529 107.773C20.6667 102.982 19.0423 99.8222 16.0717 99.3418Z" fill="url(#paint11_linear_1198_5947)"/>
<path d="M15.7999 119.965C15.7999 119.965 13.139 104.588 19.1877 101.453C19.1877 101.453 20.9827 104.499 20.3191 110.44C19.6554 116.382 18.6568 119.422 15.7999 119.965Z" fill="url(#paint12_linear_1198_5947)"/>
<path style="mix-blend-mode:multiply" opacity="0.5" d="M15.3638 111.433C15.3638 111.433 16.9186 113.702 17.9805 114.075C18.5911 114.308 19.266 114.308 19.8766 114.075L15.9579 107.122C15.5843 108.529 15.3848 109.977 15.3638 111.433Z" fill="url(#paint13_linear_1198_5947)"/>
<path d="M15.9517 107.078C15.9517 107.078 16.8112 102.818 19.3837 101.775C19.3837 101.775 21.7728 104.133 21.1661 113.291C21.1661 113.291 19.8324 115.055 17.9489 113.291C16.9916 111.325 16.3191 109.233 15.9517 107.078Z" fill="url(#paint14_linear_1198_5947)"/>
<path d="M17.3927 105.574C16.5205 105.574 17.8478 109.442 18.3029 109.366C18.7579 109.29 18.1512 105.574 17.3927 105.574Z" fill="white"/>
<path d="M27.3537 17.2005C27.3537 17.2005 23.4034 13.7937 18.5619 13.1996C18.5619 13.1996 17.0829 13.9264 15.4017 19.2546C13.7204 24.5828 16.8491 35.1191 16.8491 35.1191L27.3537 17.2005Z" fill="url(#paint15_linear_1198_5947)"/>
<path d="M16.6912 15.8605C17.1311 14.8512 17.7769 13.9449 18.5873 13.1996C18.5873 13.1996 22.5692 16.8718 22.4112 25.651L21.2672 26.8392L16.6912 15.8605Z" fill="url(#paint16_linear_1198_5947)"/>
<path d="M60.0688 17.2005C60.0688 17.2005 64.0255 13.7937 68.8607 13.1996C68.8607 13.1996 70.3397 13.9264 72.0209 19.2546C73.7022 24.5828 70.5735 35.1191 70.5735 35.1191L60.0688 17.2005Z" fill="url(#paint17_linear_1198_5947)"/>
<path d="M68.8605 13.1995C66.3154 16.2831 64.9311 20.161 64.9482 24.1592L66.4588 25.1136L70.8831 15.9868C70.8831 15.9868 69.4041 13.1173 68.8605 13.1995Z" fill="url(#paint18_linear_1198_5947)"/>
<path d="M66.3133 24.6524C66.3133 24.6524 65.2767 18.8755 69.0754 14.6344C69.0754 14.6344 73.367 16.657 75.1494 24.1594C76.9317 31.6618 72.2988 36.1683 72.2988 36.1683L66.3133 24.6524Z" fill="url(#paint19_linear_1198_5947)"/>
<path d="M21.1092 24.6524C21.1092 24.6524 22.1521 18.8755 18.3472 14.6344C18.3472 14.6344 14.0556 16.657 12.2795 24.1594C10.5035 31.6618 15.1301 36.1683 15.1301 36.1683L21.1092 24.6524Z" fill="url(#paint20_linear_1198_5947)"/>
<path d="M71.5908 56.577C62.7737 68.9526 21.3113 68.0298 15.9136 58.0244C12.3931 51.489 12.7533 41.667 16.1664 32.6287C20.5907 20.7651 30.2548 10.2415 43.0285 10.2415C58.065 10.2415 69.6189 25.221 73.0951 38.8986C74.8585 45.8259 74.5552 52.4181 71.5908 56.577Z" fill="url(#paint21_linear_1198_5947)"/>
<path d="M19.0107 45.0991C20.9827 53.5244 57.4267 54.4408 66.3765 46.8057C75.3263 39.1705 62.4388 12.0682 42.6746 13.2375C24.6359 14.3183 15.7746 31.3015 19.0107 45.0991Z" fill="#DFE3FB"/>
<path d="M18.8212 44.0815C20.7932 52.5004 57.2371 53.4168 66.187 45.788C75.1368 38.1591 62.2493 11.0252 42.5041 12.2135C24.4464 13.2943 15.5851 30.2775 18.8212 44.0815Z" fill="url(#paint22_linear_1198_5947)"/>
<path style="mix-blend-mode:multiply" opacity="0.3" d="M71.5908 56.577C62.7737 68.9526 21.3113 68.0298 15.9136 58.0244C12.3931 51.489 12.7533 41.667 16.1664 32.6287C16.021 33.1596 12.5447 45.8322 16.0969 51.4069C19.7248 57.0953 34.0724 56.3179 49.4754 55.6606C64.8785 55.0032 69.9728 52.7595 72.5579 48.4173C74.5931 44.9979 72.5579 37.4512 71.5782 34.3984L73.0888 38.9049C74.8585 45.8259 74.5552 52.4181 71.5908 56.577Z" fill="url(#paint23_linear_1198_5947)"/>
<path d="M43.073 65.6851C34.4581 65.6851 28.2451 64.7054 24.7751 63.3086C22.4934 62.3985 21.3873 61.3113 21.5454 60.1926C21.6465 59.51 23.3404 58.9285 25.9697 58.4165C33.7945 57.0008 49.9876 56.5773 58.7225 57.8983C59.4747 58.012 60.1699 58.1384 60.802 58.2775L61.1938 58.3723H61.2634C62.774 58.7452 63.8421 59.2003 64.3162 59.7502C64.4279 59.8733 64.51 60.0203 64.5563 60.18C65.4286 62.9863 50.8914 65.6851 43.073 65.6851Z" fill="url(#paint24_linear_1198_5947)"/>
<path style="mix-blend-mode:multiply" opacity="0.5" d="M64.4868 59.5036C64.4493 59.5957 64.4004 59.6827 64.3414 59.7628C63.4945 60.9573 60.0751 62.4932 60.0751 62.4932C60.0751 62.4932 46.9158 57.1081 36.2531 59.5036C25.5905 61.8991 24.7751 63.2959 24.7751 63.2959C22.4934 62.3858 21.3873 61.2986 21.5454 60.1799C21.6465 59.4973 23.3404 58.9158 25.9697 58.4038C33.7945 56.9881 49.9876 56.5646 58.7225 57.8856C59.6327 58.0499 60.467 58.2079 61.1938 58.3596H61.2634C63.3618 58.84 64.5816 59.2318 64.4868 59.5036Z" fill="url(#paint25_linear_1198_5947)"/>
<path d="M60.8271 58.2774C58.7919 60.2241 49.0204 61.9117 43.4521 61.9054C33.4657 61.9054 27.4043 60.3126 25.9949 58.4165C34.4959 56.8806 52.876 56.5077 60.8271 58.2774Z" fill="url(#paint26_linear_1198_5947)"/>
<path d="M60.2016 97.3127C59.0007 104.423 52.617 109.157 43.5155 109.157C35.5706 109.157 28.8456 106.199 27.0822 99.6765C25.3188 93.1538 25.9951 81.1132 28.3463 73.6108C28.6881 72.5068 29.1106 71.4294 29.6104 70.3874C30.0492 69.4737 30.5496 68.591 31.1083 67.7454C34.0031 63.3842 38.2442 60.5337 43.0414 60.5337C45.2017 60.4806 47.3466 60.9097 49.3201 61.7898C51.2936 62.67 53.046 63.979 54.4499 65.6217C55.6528 67.0413 56.6099 68.6521 57.2815 70.3874C58.0818 72.4328 58.7365 74.5322 59.2409 76.6699C59.2396 76.691 59.2396 76.7121 59.2409 76.7331C60.9029 83.4643 61.2293 90.456 60.2016 97.3127Z" fill="url(#paint27_linear_1198_5947)"/>
<path d="M53.9695 65.0404C53.9695 65.0404 54.7469 73.4846 59.7085 78.6168C59.7401 78.6168 58.3306 70.7478 53.9695 65.0404Z" fill="url(#paint28_linear_1198_5947)"/>
<path d="M81.9945 54.7314C74.2266 70.1345 60.5048 75.3931 60.5048 75.3931C56.7125 72.9534 53.4574 64.9959 54.7531 63.4411C54.8178 63.3646 54.8973 63.3023 54.987 63.2578C71.7047 55.2623 76.7042 46.9698 76.7042 46.9698C77.6263 47.0188 78.5163 47.3247 79.2736 47.853C80.0309 48.3813 80.6253 49.111 80.9895 49.9594C81.6632 51.4595 82.006 53.0871 81.9945 54.7314Z" fill="url(#paint29_linear_1198_5947)"/>
<path style="mix-blend-mode:multiply" opacity="0.5" d="M15.9136 58.0245C17.3943 56.477 19.1552 55.2245 21.1028 54.3333C24.5348 52.69 27.6951 51.4006 28.1817 50.0797C28.6684 48.7587 18.7579 49.5361 18.7579 49.5361L13.8279 51.6787C13.8279 51.6787 14.599 55.6796 15.9136 58.0245Z" fill="url(#paint30_linear_1198_5947)"/>
<path d="M76.7297 46.9635C75.3328 47.3364 75.4656 56.5706 77.2543 57.4934C79.043 58.4162 81.9947 54.7314 81.9947 54.7314C81.9947 54.7314 81.666 45.6488 76.7297 46.9635Z" fill="url(#paint31_linear_1198_5947)"/>
<path d="M50.3351 30.4419C51.6498 32.7615 60.372 30.701 60.865 29.3232C61.4971 27.4839 59.089 21.688 54.4813 22.2189C49.8737 22.7498 49.6967 29.3168 50.3351 30.4419Z" fill="url(#paint32_linear_1198_5947)"/>
<path d="M36.7081 30.4419C35.3871 32.7615 26.6648 30.701 26.1718 29.3232C25.5398 27.4839 27.9542 21.688 32.5619 22.2189C37.1695 22.7498 37.3465 29.3168 36.7081 30.4419Z" fill="url(#paint33_linear_1198_5947)"/>
<path d="M34.2747 34.7207C34.2747 34.7207 36.7649 37.2869 43.8123 37.2869C50.8596 37.2869 54.4813 34.3289 54.4813 34.3289C54.4813 34.3289 51.3716 38.5383 43.8123 38.5383C36.253 38.5383 34.2747 34.7207 34.2747 34.7207Z" fill="#2F95CD"/>
<path d="M11.875 26.8394C11.875 26.8394 14.4032 28.4827 12.7535 32.2939C12.7535 32.2939 0.807758 38.7977 1.49669 45.8893C2.07818 51.799 18.562 48.9358 18.562 48.9358L19.1498 50.9141C19.1498 50.9141 5.14994 53.6572 0.327401 50.3579C0.327401 50.3579 -1.31593 46.4519 2.76079 39.4108C5.39478 34.9418 8.44648 30.7324 11.875 26.8394Z" fill="url(#paint34_linear_1198_5947)"/>
<path d="M16.4889 48.3922C14.9846 50.0924 18.1765 51.9506 20.7995 52.235C23.7448 52.5574 28.9719 51.3944 28.6559 48.4427C28.3398 45.4911 20.0157 44.4039 16.4889 48.3922Z" fill="url(#paint35_linear_1198_5947)"/>
<path style="mix-blend-mode:screen" opacity="0.5" d="M24.8004 22.7752C24.3453 25.5056 30.413 25.3855 38.7055 25.1137C48.6413 24.7851 58.6277 33.3304 64.4362 27.1995C65.3969 26.1882 55.8846 12.9025 44.3939 13.1996C32.9032 13.4967 25.1922 20.405 24.8004 22.7752Z" fill="url(#paint36_linear_1198_5947)"/>
<path style="mix-blend-mode:screen" opacity="0.5" d="M30.4319 46.5467C29.9073 48.5187 34.0473 50.497 44.2233 50.004C56.523 49.3719 59.1333 46.8437 58.5266 46.1105C58.1663 45.6808 54.4814 48.0067 44.375 45.7882C37.7068 44.3029 30.9882 44.4609 30.4319 46.5467Z" fill="url(#paint37_linear_1198_5947)"/>
<path style="mix-blend-mode:multiply" opacity="0.3" d="M71.5026 34.133L71.2056 33.2355C71.2625 33.4061 71.3762 33.7158 71.5026 34.133Z" fill="url(#paint38_linear_1198_5947)"/>
<path style="mix-blend-mode:multiply" opacity="0.3" d="M60.2016 97.3128C59.0007 104.423 52.617 109.157 43.5155 109.157C35.5706 109.157 28.8456 106.199 27.0822 99.6766C25.3188 93.1539 25.9951 81.1133 28.3463 73.6109C28.6881 72.5069 29.1106 71.4295 29.6104 70.3875C29.6104 70.3875 24.8068 86.3151 28.6433 96.4595C32.4799 106.604 50.3795 106.389 56.4535 99.6514C62.2178 93.2361 59.5569 78.1617 59.2851 76.7269C60.9332 83.463 61.2446 90.4569 60.2016 97.3128Z" fill="url(#paint39_linear_1198_5947)"/>
<path d="M27.4108 93.097C28.7697 83.5594 36.4175 77.0935 44.9185 77.9278C54.077 78.7937 59.0006 87.535 58.8679 95.0374C58.7352 102.54 53.2553 108.399 43.4269 108.399C33.5985 108.399 26.1403 102.015 27.4108 93.097Z" fill="url(#paint40_linear_1198_5947)"/>
<path d="M27.5055 93.887C28.858 84.3494 36.5122 77.8835 45.0069 78.7178C54.1716 79.5837 59.0953 88.325 58.9626 95.8274C58.8298 103.33 53.35 109.189 43.5153 109.189C33.6806 109.189 26.2414 102.805 27.5055 93.887Z" fill="url(#paint41_radial_1198_5947)"/>
<path style="mix-blend-mode:multiply" opacity="0.5" d="M54.4815 65.6092C52.5411 68.6557 41.8405 70.4317 35.659 69.8692C30.274 69.3762 31.0893 67.9225 31.1336 67.7392C34.0283 63.3781 38.2694 60.5275 43.0667 60.5275C45.2274 60.4727 47.3732 60.9003 49.3479 61.7794C51.3225 62.6585 53.0763 63.9668 54.4815 65.6092Z" fill="url(#paint42_linear_1198_5947)"/>
<path d="M50.6764 70.893C50.1834 71.0573 50.1581 75.0645 50.6764 75.7155C51.1947 76.3665 52.0353 76.1579 52.3134 75.2162C52.5915 74.2744 51.4285 70.6465 50.6764 70.893Z" fill="white"/>
<path d="M51.5994 76.7839C51.1822 76.8787 51.138 77.8773 51.3276 78.2249C51.3974 78.3 51.4844 78.3569 51.581 78.3909C51.6777 78.4249 51.7812 78.4348 51.8826 78.4199C51.984 78.405 52.0802 78.3656 52.163 78.3052C52.2458 78.2448 52.3127 78.1652 52.3579 78.0732C52.4716 77.6498 52.0165 76.6827 51.5994 76.7839Z" fill="white"/>
<path d="M50.0635 11.9796C49.1913 12.1882 56.523 16.0627 56.8201 15.6013C57.1172 15.1399 52.4842 11.4361 50.0635 11.9796Z" fill="white"/>
<path d="M64.1075 14.8808C63.3744 15.2727 63.4376 16.0628 64.9482 15.8668C66.4588 15.6709 67.2804 14.4826 67.1161 14.2551C66.9518 14.0276 64.9292 14.4384 64.1075 14.8808Z" fill="white"/>
<path style="mix-blend-mode:multiply" opacity="0.3" d="M81.9945 54.7317C74.2266 70.1348 60.5048 75.3934 60.5048 75.3934C56.7125 72.9537 53.4574 64.9962 54.7531 63.4414C54.829 63.3782 54.9048 63.315 54.987 63.2581C55.0692 63.2012 57.433 72.2395 64.6005 69.7492C73.0952 66.7912 76.5778 52.0518 76.5778 52.0518V47.7223L81.0022 49.9913C81.6671 51.4827 82.0054 53.0989 81.9945 54.7317Z" fill="url(#paint43_linear_1198_5947)"/>
<path d="M76.2303 49.5677C76.2303 49.5677 76.1671 54.4408 78.9292 55.2561C81.6913 56.0715 85.1486 50.8823 86.4316 48.7397C87.7147 46.597 89.6551 36.9583 87.8158 34.6576C85.9766 32.3569 82.4181 32.9447 80.0479 36.1682C80.0479 36.1429 76.3631 45.4214 76.2303 49.5677Z" fill="url(#paint44_linear_1198_5947)"/>
<path d="M76.3818 48.1268C76.3818 48.1268 79.5863 45.6871 80.3132 41.939C81.04 38.191 84.9208 33.242 84.9208 33.242C84.9208 33.242 82.8793 33.0524 80.0477 36.1431C77.2161 39.2338 76.3818 48.1268 76.3818 48.1268Z" fill="url(#paint45_linear_1198_5947)"/>
<path style="mix-blend-mode:multiply" opacity="0.5" d="M79.542 36.7876L81.9944 37.7104C81.3406 38.8338 80.8269 40.0331 80.4648 41.2815C79.9597 42.7489 79.2512 44.1382 78.3601 45.4088L79.542 36.7876Z" fill="url(#paint46_linear_1198_5947)"/>
<path d="M76.382 47.2039C75.742 45.4765 75.4166 43.6484 75.4213 41.8062C75.3075 38.2478 76.1545 35.4857 76.5464 34.9611C76.9382 34.4365 78.3224 34.5313 78.9798 35.3214C79.6371 36.1114 80.1111 40.0175 80.1111 40.0175C80.1111 40.0175 79.2263 46.3443 76.382 47.2039Z" fill="url(#paint47_linear_1198_5947)"/>
<path d="M80.3132 41.939C80.3132 41.939 81.9566 47.362 85.9195 49.5236L86.4315 48.702C83.6444 46.9872 81.5363 44.361 80.4649 41.269L80.3132 41.939Z" fill="url(#paint48_linear_1198_5947)"/>
<path d="M77.4375 37.6158C77.0393 37.5715 77.1721 41.0731 77.6651 40.9214C78.1581 40.7697 77.9748 37.6853 77.4375 37.6158Z" fill="white"/>
<path d="M16.6912 48.7269C16.6027 49.2136 27.1074 49.359 27.3539 47.4628C27.6004 45.5667 17.3928 44.9347 16.6912 48.7269Z" fill="url(#paint49_linear_1198_5947)"/>
<path style="mix-blend-mode:screen" opacity="0.2" d="M19.2888 41.3003C19.0348 39.0683 19.0625 36.8131 19.3709 34.588C19.8703 30.7388 20.9068 28.2675 21.5199 28.5961C22.133 28.9248 22.0445 32.7171 22.4048 36.4335C22.6892 39.322 23.2454 42.0398 23.2454 42.0398C23.2454 42.0398 20.5529 44.5807 19.2888 41.3003Z" fill="url(#paint50_linear_1198_5947)"/>
<path style="mix-blend-mode:screen" opacity="0.72" d="M30.7479 87.8319C32.3596 90.4106 39.0024 89.0391 46.4922 89.7723C53.982 90.5054 55.2588 92.9325 56.8389 92.4458C58.419 91.9592 55.9224 80.6771 44.7351 79.9123C33.5478 79.1475 30.3434 87.1935 30.7479 87.8319Z" fill="url(#paint51_linear_1198_5947)"/>
<path d="M82.3041 0.760802C82.3041 0.760802 82.2409 15.6393 83.3723 22.8446L94.8945 27.3891L93.049 24.1593L104.236 22.8952C104.236 22.8952 105.424 6.16483 105.816 0.773443C105.816 0.760802 97.0309 -0.952054 82.3041 0.760802Z" fill="url(#paint52_linear_1198_5947)"/>
<path d="M90.7611 7.41638C90.7168 8.28861 90.6789 9.1482 90.6473 10.0078C90.6157 10.8674 90.5967 11.7206 90.5841 12.5802H90.9128H91.6775H92.1263C92.1263 12.3843 92.1263 12.1947 92.1263 12.0114V11.4362C92.1263 10.8042 92.1263 10.1026 92.1263 9.43894C92.1263 8.77529 92.0884 8.10532 92.0568 7.43534H93.6811C93.6053 8.49719 93.5421 9.54639 93.4978 10.5956C93.4536 11.6448 93.4346 12.694 93.4346 13.7558C93.4346 14.2741 93.4346 14.7861 93.4346 15.3044C93.4346 15.8226 93.4346 16.3346 93.4852 16.8592H91.9746C91.9746 16.3346 92.0188 15.8163 92.0315 15.298L92.0884 13.7369H91.3362C91.0876 13.7369 90.8411 13.7369 90.5967 13.7369H90.5462V16.0059C90.5462 16.303 90.5462 16.638 90.5462 16.9098H89.0356C89.0356 16.2777 89.0672 15.6457 89.0798 15.0136C89.0924 14.3816 89.0798 13.7495 89.0798 13.1491C89.0798 11.2614 89.0398 9.3652 88.9597 7.46063L90.7611 7.41638Z" fill="white"/>
<path d="M97.0626 16.7959C96.8919 16.7959 96.7149 16.7959 96.538 16.7959H96.007C95.7226 16.7959 95.4319 16.7959 95.1411 16.7959L94.2689 16.8465V15.4307H94.5723H94.8757L94.9515 13.3955C94.9768 12.7213 94.9894 12.045 94.9894 11.3666C94.9894 10.9179 94.9894 10.4691 94.9894 10.0267C94.9894 9.58424 94.9894 9.14181 94.9452 8.69305H94.5976H94.2373V7.31519L95.2486 7.36575H96.2725H96.6454H97.0183L96.9804 8.68041H96.3483C96.2851 9.47048 96.2409 10.2542 96.2156 11.038C96.1903 11.8217 96.1777 12.5991 96.1777 13.3955C96.1777 14.0844 96.1777 14.7734 96.2156 15.456H96.6454C96.7971 15.456 96.9425 15.456 97.0942 15.456L97.0626 16.7959Z" fill="white"/>
<path d="M99.1988 16.3344C99.1989 16.4361 99.1796 16.5369 99.142 16.6315C99.0983 16.7201 99.0407 16.8012 98.9713 16.8716C98.9045 16.942 98.8223 16.9961 98.7311 17.0296C98.6359 17.0729 98.5323 17.0944 98.4278 17.0928C98.3272 17.0952 98.2275 17.0735 98.137 17.0296C98.0475 16.9929 97.966 16.9393 97.8968 16.8716C97.8273 16.8027 97.7715 16.7212 97.7325 16.6315C97.6898 16.5383 97.6682 16.4369 97.6693 16.3344C97.6676 16.2319 97.6892 16.1303 97.7325 16.0373C97.8121 15.8567 97.9564 15.7124 98.137 15.6328C98.2291 15.5946 98.328 15.5753 98.4278 15.5759C98.5316 15.5752 98.6346 15.5946 98.7311 15.6328C98.8229 15.6682 98.9051 15.7244 98.9713 15.7971C99.0407 15.8675 99.0983 15.9486 99.142 16.0373C99.1802 16.1317 99.1995 16.2326 99.1988 16.3344ZM99.3189 7.32136C99.1988 8.54121 99.0977 9.76739 99.0282 11.0125C98.9587 12.2577 98.9208 13.4712 98.9018 14.6721H98.0296C97.9958 13.467 97.9537 12.2408 97.9032 10.9936C97.8526 9.74632 97.7957 8.51804 97.7325 7.30872L99.3189 7.32136Z" fill="white"/>
<path style="mix-blend-mode:screen" opacity="0.72" d="M72.3812 18.0283C72.3812 18.0283 70.9907 16.3028 69.0945 16.7642C67.1984 17.2256 67.0656 23.1985 68.2033 23.3502C69.341 23.5019 69.8214 20.0382 70.6936 19.501C71.4423 19.1659 72.2707 19.0497 73.0827 19.166L72.3812 18.0283Z" fill="url(#paint53_linear_1198_5947)"/>
<path style="mix-blend-mode:screen" opacity="0.72" d="M13.7017 20.1078C14.021 19.826 14.405 19.6272 14.8195 19.5291C15.234 19.4309 15.6663 19.4365 16.0782 19.5453C17.7278 19.8108 18.6759 23.1922 19.5165 22.8509C20.3571 22.5096 19.7377 17.0424 17.5129 15.4307C17.5129 15.4307 14.6497 17.883 13.7017 20.1078Z" fill="url(#paint54_linear_1198_5947)"/>
<path d="M11.4642 28.0717C11.4642 28.0717 5.64931 34.6071 6.0159 35.0748C6.38249 35.5425 11.8181 28.7479 11.4642 28.0717Z" fill="url(#paint55_linear_1198_5947)"/>
<defs>
<radialGradient id="paint0_radial_1198_5947" cx="0" cy="0" r="1" gradientUnits="userSpaceOnUse" gradientTransform="translate(45.8224 133.237) scale(25.7813 5.67189)">
<stop stop-color="#BE9DEA"/>
<stop offset="0.39" stop-color="#E0BFF5"/>
<stop offset="1" stop-color="white"/>
</radialGradient>
<linearGradient id="paint1_linear_1198_5947" x1="97.0058" y1="27.5407" x2="98.9398" y2="0.274063" gradientUnits="userSpaceOnUse">
<stop stop-color="#A242EA"/>
<stop offset="1" stop-color="#FE117E"/>
</linearGradient>
<linearGradient id="paint2_linear_1198_5947" x1="31.1587" y1="124.074" x2="33.927" y2="102.034" gradientUnits="userSpaceOnUse">
<stop stop-color="#A626FF"/>
<stop offset="1" stop-color="#E8DCF7"/>
</linearGradient>
<linearGradient id="paint3_linear_1198_5947" x1="50.9736" y1="127.19" x2="54.5447" y2="98.7601" gradientUnits="userSpaceOnUse">
<stop stop-color="#A626FF"/>
<stop offset="1" stop-color="#E8DCF7"/>
</linearGradient>
<linearGradient id="paint4_linear_1198_5947" x1="33.4279" y1="109.777" x2="33.4279" y2="101.086" gradientUnits="userSpaceOnUse">
<stop stop-color="#BE9DEA"/>
<stop offset="1" stop-color="#9E8CEF"/>
</linearGradient>
<linearGradient id="paint5_linear_1198_5947" x1="53.6345" y1="109.979" x2="53.6345" y2="99.6452" gradientUnits="userSpaceOnUse">
<stop stop-color="#BE9DEA"/>
<stop offset="1" stop-color="#9E8CEF"/>
</linearGradient>
<linearGradient id="paint6_linear_1198_5947" x1="33.4532" y1="124.365" x2="33.4532" y2="101.162" gradientUnits="userSpaceOnUse">
<stop stop-color="#9D68C2"/>
<stop offset="1" stop-color="#CCEDFF"/>
</linearGradient>
<linearGradient id="paint7_linear_1198_5947" x1="53.6787" y1="126.52" x2="53.6787" y2="99.5629" gradientUnits="userSpaceOnUse">
<stop stop-color="#9D68C2"/>
<stop offset="1" stop-color="#CCEDFF"/>
</linearGradient>
<linearGradient id="paint8_linear_1198_5947" x1="18.0123" y1="103.994" x2="22.7842" y2="65.9947" gradientUnits="userSpaceOnUse">
<stop stop-color="#A626FF"/>
<stop offset="1" stop-color="#E8DCF7"/>
</linearGradient>
<linearGradient id="paint9_linear_1198_5947" x1="15.2122" y1="103.633" x2="15.2122" y2="97.5907" gradientUnits="userSpaceOnUse">
<stop stop-color="#BE9DEA"/>
<stop offset="1" stop-color="#9E8CEF"/>
</linearGradient>
<linearGradient id="paint10_linear_1198_5947" x1="19.9589" y1="103.273" x2="19.9589" y2="71.3483" gradientUnits="userSpaceOnUse">
<stop stop-color="#A626FF"/>
<stop offset="1" stop-color="#A626FF"/>
</linearGradient>
<linearGradient id="paint11_linear_1198_5947" x1="13.7647" y1="120.073" x2="16.3624" y2="99.3734" gradientUnits="userSpaceOnUse">
<stop stop-color="#A626FF"/>
<stop offset="1" stop-color="#E8DCF7"/>
</linearGradient>
<linearGradient id="paint12_linear_1198_5947" x1="17.8415" y1="119.965" x2="17.8415" y2="101.453" gradientUnits="userSpaceOnUse">
<stop stop-color="#BE9DEA"/>
<stop offset="1" stop-color="#9E8CEF"/>
</linearGradient>
<linearGradient id="paint13_linear_1198_5947" x1="17.6139" y1="114.233" x2="17.6139" y2="107.078" gradientUnits="userSpaceOnUse">
<stop stop-color="#8DA4E5"/>
<stop offset="1" stop-color="#755CBB"/>
</linearGradient>
<linearGradient id="paint14_linear_1198_5947" x1="18.0943" y1="113.898" x2="19.6112" y2="101.807" gradientUnits="userSpaceOnUse">
<stop stop-color="#CBC1F7"/>
<stop offset="1" stop-color="#E8DCF7"/>
</linearGradient>
<linearGradient id="paint15_linear_1198_5947" x1="21.1091" y1="35.1191" x2="21.1091" y2="13.1996" gradientUnits="userSpaceOnUse">
<stop stop-color="#B9ACF4"/>
<stop offset="1" stop-color="#E1D1F5"/>
</linearGradient>
<linearGradient id="paint16_linear_1198_5947" x1="19.5417" y1="26.8392" x2="19.5417" y2="13.1996" gradientUnits="userSpaceOnUse">
<stop stop-color="#BE9DEA"/>
<stop offset="1" stop-color="#9E8CEF"/>
</linearGradient>
<linearGradient id="paint17_linear_1198_5947" x1="66.3135" y1="35.1191" x2="66.3135" y2="13.1996" gradientUnits="userSpaceOnUse">
<stop stop-color="#B9ACF4"/>
<stop offset="1" stop-color="#E1D1F5"/>
</linearGradient>
<linearGradient id="paint18_linear_1198_5947" x1="67.9061" y1="25.1136" x2="67.9061" y2="13.1995" gradientUnits="userSpaceOnUse">
<stop stop-color="#BE9DEA"/>
<stop offset="1" stop-color="#9E8CEF"/>
</linearGradient>
<linearGradient id="paint19_linear_1198_5947" x1="70.8704" y1="36.1683" x2="70.8704" y2="14.6344" gradientUnits="userSpaceOnUse">
<stop stop-color="#45FFCD"/>
<stop offset="1" stop-color="#22E0FF"/>
</linearGradient>
<linearGradient id="paint20_linear_1198_5947" x1="16.5522" y1="36.1683" x2="16.5522" y2="14.6344" gradientUnits="userSpaceOnUse">
<stop stop-color="#45FFCD"/>
<stop offset="1" stop-color="#22E0FF"/>
</linearGradient>
<linearGradient id="paint21_linear_1198_5947" x1="41.3473" y1="66.2032" x2="48.3188" y2="10.7281" gradientUnits="userSpaceOnUse">
<stop stop-color="#A626FF"/>
<stop offset="1" stop-color="#E8DCF7"/>
</linearGradient>
<linearGradient id="paint22_linear_1198_5947" x1="43.6228" y1="50.9961" x2="43.6228" y2="12.1756" gradientUnits="userSpaceOnUse">
<stop stop-color="#0665BD"/>
<stop offset="1" stop-color="#1A1F77"/>
</linearGradient>
<linearGradient id="paint23_linear_1198_5947" x1="43.8122" y1="65.6912" x2="43.8122" y2="32.6223" gradientUnits="userSpaceOnUse">
<stop stop-color="#A626FF"/>
<stop offset="1" stop-color="#CCEDFF"/>
</linearGradient>
<linearGradient id="paint24_linear_1198_5947" x1="21.5264" y1="61.3935" x2="64.6195" y2="61.3935" gradientUnits="userSpaceOnUse">
<stop stop-color="#8879EA"/>
<stop offset="1" stop-color="#9E8CEF"/>
</linearGradient>
<linearGradient id="paint25_linear_1198_5947" x1="43.0098" y1="63.3086" x2="43.0098" y2="57.1018" gradientUnits="userSpaceOnUse">
<stop stop-color="#8DA4E5"/>
<stop offset="1" stop-color="#755CBB"/>
</linearGradient>
<linearGradient id="paint26_linear_1198_5947" x1="42.9022" y1="62.43" x2="43.7049" y2="55.9957" gradientUnits="userSpaceOnUse">
<stop stop-color="#5E36CC"/>
<stop offset="1" stop-color="#6C4A96"/>
</linearGradient>
<linearGradient id="paint27_linear_1198_5947" x1="40.981" y1="109.075" x2="47.036" y2="60.8813" gradientUnits="userSpaceOnUse">
<stop stop-color="#CBC1F7"/>
<stop offset="1" stop-color="#E8DCF7"/>
</linearGradient>
<linearGradient id="paint28_linear_1198_5947" x1="53.9695" y1="71.8286" x2="59.7085" y2="71.8286" gradientUnits="userSpaceOnUse">
<stop stop-color="#8879EA"/>
<stop offset="1" stop-color="#9E8CEF"/>
</linearGradient>
<linearGradient id="paint29_linear_1198_5947" x1="66.1553" y1="76.101" x2="69.9223" y2="46.0976" gradientUnits="userSpaceOnUse">
<stop stop-color="#A626FF"/>
<stop offset="1" stop-color="#E8DCF7"/>
</linearGradient>
<linearGradient id="paint30_linear_1198_5947" x1="21.0143" y1="58.0245" x2="21.0143" y2="49.3086" gradientUnits="userSpaceOnUse">
<stop stop-color="#8DA4E5"/>
<stop offset="1" stop-color="#755CBB"/>
</linearGradient>
<linearGradient id="paint31_linear_1198_5947" x1="78.8913" y1="57.6388" x2="78.8913" y2="46.8307" gradientUnits="userSpaceOnUse">
<stop stop-color="#BE9DEA"/>
<stop offset="1" stop-color="#9E8CEF"/>
</linearGradient>
<linearGradient id="paint32_linear_1198_5947" x1="55.5179" y1="31.4911" x2="55.5179" y2="22.181" gradientUnits="userSpaceOnUse">
<stop stop-color="#45FFCD"/>
<stop offset="1" stop-color="#22E0FF"/>
</linearGradient>
<linearGradient id="paint33_linear_1198_5947" x1="31.519" y1="31.4911" x2="31.519" y2="22.181" gradientUnits="userSpaceOnUse">
<stop stop-color="#45FFCD"/>
<stop offset="1" stop-color="#22E0FF"/>
</linearGradient>
<linearGradient id="paint34_linear_1198_5947" x1="9.18242" y1="52.3299" x2="12.3743" y2="26.9026" gradientUnits="userSpaceOnUse">
<stop stop-color="#A626FF"/>
<stop offset="1" stop-color="#9E8CEF"/>
</linearGradient>
<linearGradient id="paint35_linear_1198_5947" x1="21.3061" y1="52.232" x2="22.9546" y2="45.2796" gradientUnits="userSpaceOnUse">
<stop stop-color="#DD1A8F"/>
<stop offset="1" stop-color="#FE117E"/>
</linearGradient>
<linearGradient id="paint36_linear_1198_5947" x1="24.7751" y1="21.3088" x2="64.4868" y2="21.3088" gradientUnits="userSpaceOnUse">
<stop/>
<stop offset="1" stop-color="#6A9BFF"/>
</linearGradient>
<linearGradient id="paint37_linear_1198_5947" x1="30.3877" y1="47.4442" x2="58.6087" y2="47.4442" gradientUnits="userSpaceOnUse">
<stop/>
<stop offset="1" stop-color="#6A9BFF"/>
</linearGradient>
<linearGradient id="paint38_linear_1198_5947" x1="71.3573" y1="34.133" x2="71.3573" y2="33.2355" gradientUnits="userSpaceOnUse">
<stop stop-color="#9D68C2"/>
<stop offset="1" stop-color="#CCEDFF"/>
</linearGradient>
<linearGradient id="paint39_linear_1198_5947" x1="43.446" y1="109.157" x2="43.446" y2="70.3811" gradientUnits="userSpaceOnUse">
<stop stop-color="#9D68C2"/>
<stop offset="1" stop-color="#CCEDFF"/>
</linearGradient>
<linearGradient id="paint40_linear_1198_5947" x1="43.073" y1="108.367" x2="43.073" y2="77.8267" gradientUnits="userSpaceOnUse">
<stop stop-color="#BE9DEA"/>
<stop offset="1" stop-color="#9E8CEF"/>
</linearGradient>
<radialGradient id="paint41_radial_1198_5947" cx="0" cy="0" r="1" gradientUnits="userSpaceOnUse" gradientTransform="translate(43.6859 104.417) scale(23.3037 23.3037)">
<stop stop-color="#1924B1"/>
<stop offset="1" stop-color="#22E0FF"/>
</radialGradient>
<linearGradient id="paint42_linear_1198_5947" x1="42.7759" y1="69.9703" x2="42.7759" y2="60.5212" gradientUnits="userSpaceOnUse">
<stop stop-color="#8DA4E5"/>
<stop offset="1" stop-color="#755CBB"/>
</linearGradient>
<linearGradient id="paint43_linear_1198_5947" x1="68.2348" y1="75.3934" x2="68.2348" y2="47.6844" gradientUnits="userSpaceOnUse">
<stop stop-color="#A626FF"/>
<stop offset="1" stop-color="#CCEDFF"/>
</linearGradient>
<linearGradient id="paint44_linear_1198_5947" x1="81.0023" y1="55.5153" x2="83.8213" y2="33.0712" gradientUnits="userSpaceOnUse">
<stop stop-color="#A626FF"/>
<stop offset="1" stop-color="#E8DCF7"/>
</linearGradient>
<linearGradient id="paint45_linear_1198_5947" x1="80.6482" y1="48.1268" x2="80.6482" y2="33.2357" gradientUnits="userSpaceOnUse">
<stop stop-color="#BE9DEA"/>
<stop offset="1" stop-color="#9E8CEF"/>
</linearGradient>
<linearGradient id="paint46_linear_1198_5947" x1="80.1741" y1="45.4088" x2="80.1741" y2="36.7876" gradientUnits="userSpaceOnUse">
<stop stop-color="#8DA4E5"/>
<stop offset="1" stop-color="#755CBB"/>
</linearGradient>
<linearGradient id="paint47_linear_1198_5947" x1="76.8434" y1="47.2608" x2="78.4172" y2="34.7525" gradientUnits="userSpaceOnUse">
<stop stop-color="#CBC1F7"/>
<stop offset="1" stop-color="#E8DCF7"/>
</linearGradient>
<linearGradient id="paint48_linear_1198_5947" x1="83.3724" y1="49.5363" x2="83.3724" y2="41.2817" gradientUnits="userSpaceOnUse">
<stop stop-color="#BE9DEA"/>
<stop offset="1" stop-color="#9E8CEF"/>
</linearGradient>
<linearGradient id="paint49_linear_1198_5947" x1="22.0257" y1="49.0051" x2="22.0257" y2="45.9649" gradientUnits="userSpaceOnUse">
<stop stop-color="#D93DE3"/>
<stop offset="1" stop-color="#FF6DBA"/>
</linearGradient>
<linearGradient id="paint50_linear_1198_5947" x1="20.9408" y1="42.9592" x2="21.9251" y2="28.5948" gradientUnits="userSpaceOnUse">
<stop/>
<stop offset="1" stop-color="#00E3FF"/>
</linearGradient>
<linearGradient id="paint51_linear_1198_5947" x1="30.7099" y1="86.1822" x2="57.2687" y2="86.1822" gradientUnits="userSpaceOnUse">
<stop/>
<stop offset="1" stop-color="#D4E2FF"/>
</linearGradient>
<linearGradient id="paint52_linear_1198_5947" x1="92.183" y1="27.1931" x2="94.1361" y2="-0.27576" gradientUnits="userSpaceOnUse">
<stop stop-color="#D93DE3"/>
<stop offset="1" stop-color="#FF6DBA"/>
</linearGradient>
<linearGradient id="paint53_linear_1198_5947" x1="67.4449" y1="20.0193" x2="73.0511" y2="20.0193" gradientUnits="userSpaceOnUse">
<stop/>
<stop offset="1" stop-color="#D4E2FF"/>
</linearGradient>
<linearGradient id="paint54_linear_1198_5947" x1="13.7017" y1="19.1534" x2="19.8768" y2="19.1534" gradientUnits="userSpaceOnUse">
<stop stop-color="#D4E2FF"/>
<stop offset="1"/>
</linearGradient>
<linearGradient id="paint55_linear_1198_5947" x1="8.46219" y1="35.331" x2="8.60452" y2="28.2141" gradientUnits="userSpaceOnUse">
<stop stop-color="#CBC1F7"/>
<stop offset="1" stop-color="#E8DCF7"/>
</linearGradient>
</defs>
</svg>
