<svg width="22" height="22" viewBox="0 0 22 22" fill="none" xmlns="http://www.w3.org/2000/svg">
<rect width="22" height="22" rx="11" fill="url(#paint0_linear_1336_7089)"/>
<path d="M16.1593 7.1007C16.2317 7.11668 16.3041 7.13265 16.3788 7.14912C16.2352 7.31719 16.0915 7.48517 15.9474 7.65273C15.8354 7.78318 15.7239 7.91408 15.6132 8.04562C15.1944 8.5365 14.7449 8.98974 14.2863 9.44284C14.0073 9.71971 13.7381 9.99886 13.4833 10.2986C13.1301 10.7141 12.7434 11.092 12.3558 11.4749C12.0769 11.7517 11.8077 12.0308 11.5529 12.3305C11.2001 12.7456 10.8138 13.1232 10.4266 13.5057C10.0775 13.8521 9.74874 14.2096 9.42896 14.5835C9.15531 14.8967 8.874 15.2114 8.55586 15.48C8.48881 15.48 8.42176 15.48 8.35267 15.48C8.17827 15.242 8.01663 15.0037 7.85739 14.7557C7.78364 14.6428 7.78364 14.6428 7.7084 14.5275C7.54997 14.2845 7.39252 14.041 7.23511 13.7973C7.08096 13.5601 6.9266 13.3231 6.77223 13.086C6.67031 12.9294 6.56855 12.7726 6.46694 12.6158C6.21874 12.2331 5.96854 11.8521 5.71316 11.4741C5.66569 11.4038 5.61822 11.3335 5.56932 11.261C5.4797 11.1286 5.38968 10.9964 5.29921 10.8646C5 10.4225 5 10.4225 5 10.197C5.35993 10.3349 5.6992 10.4929 6.04017 10.6724C6.14029 10.725 6.24041 10.7775 6.34357 10.8316C6.4471 10.8862 6.55062 10.9408 6.65729 10.9971C7.32109 11.3462 7.98518 11.6932 8.65746 12.0257C8.74363 11.9507 8.82981 11.8756 8.91859 11.7983C9.58441 11.2214 10.2576 10.6588 10.9532 10.1182C11.4912 9.69969 12.0201 9.27065 12.5484 8.83996C13.009 8.46443 13.4705 8.09011 13.9385 7.72377C14.1419 7.56332 14.1419 7.56332 14.3012 7.39358C14.8154 6.87212 15.4907 6.97746 16.1593 7.1007Z" fill="#FAFAFA"/>
<defs>
<linearGradient id="paint0_linear_1336_7089" x1="0" y1="11" x2="22" y2="11" gradientUnits="userSpaceOnUse">
<stop stop-color="#5245E5"/>
<stop offset="1" stop-color="#9233E9"/>
</linearGradient>
</defs>
</svg>
